<svg width="20" height="20" viewBox="0 0 20 20" fill="none" xmlns="http://www.w3.org/2000/svg">
<g clip-path="url(#clip0_1_89)">
<path d="M10 18.3334C14.6024 18.3334 18.3333 14.6025 18.3333 10.0001C18.3333 5.39771 14.6024 1.66675 10 1.66675C5.39763 1.66675 1.66667 5.39771 1.66667 10.0001C1.66667 14.6025 5.39763 18.3334 10 18.3334Z" stroke="#4D61B3" style="stroke:#4D61B3;stroke:color(display-p3 0.3020 0.3804 0.7020);stroke-opacity:1;" stroke-width="1.5" stroke-linecap="round" stroke-linejoin="round"/>
<path d="M10 13.3334C11.841 13.3334 13.3333 11.841 13.3333 10.0001C13.3333 8.15913 11.841 6.66675 10 6.66675C8.15906 6.66675 6.66667 8.15913 6.66667 10.0001C6.66667 11.841 8.15906 13.3334 10 13.3334Z" stroke="#4D61B3" style="stroke:#4D61B3;stroke:color(display-p3 0.3020 0.3804 0.7020);stroke-opacity:1;" stroke-width="1.5" stroke-linecap="round" stroke-linejoin="round"/>
<path d="M17.6417 6.66675H10" stroke="#4D61B3" style="stroke:#4D61B3;stroke:color(display-p3 0.3020 0.3804 0.7020);stroke-opacity:1;" stroke-width="1.5" stroke-linecap="round" stroke-linejoin="round"/>
<path d="M3.29167 5.05005L7.11667 11.6667" stroke="#4D61B3" style="stroke:#4D61B3;stroke:color(display-p3 0.3020 0.3804 0.7020);stroke-opacity:1;" stroke-width="1.5" stroke-linecap="round" stroke-linejoin="round"/>
<path d="M9.06667 18.2834L12.8833 11.6667" stroke="#4D61B3" style="stroke:#4D61B3;stroke:color(display-p3 0.3020 0.3804 0.7020);stroke-opacity:1;" stroke-width="1.5" stroke-linecap="round" stroke-linejoin="round"/>
</g>
<defs>
<clipPath id="clip0_1_89">
<rect width="20" height="20" fill="white" style="fill:white;fill:white;fill-opacity:1;"/>
</clipPath>
</defs>
</svg>
