<svg width="48" height="48" viewBox="0 0 48 48" fill="none" xmlns="http://www.w3.org/2000/svg">
<path d="M0 35.5069V12.4932C0 5.58904 5.75343 0 12.6575 0H35.5069C42.411 0 48 5.58904 48 12.4932V35.3425C48 42.2466 42.411 47.8356 35.5069 47.8356H27.7808L23.6712 46.8493L20.3836 48H12.6575C5.75343 48 0 42.411 0 35.5069Z" fill="#3B5998" style="fill:#3B5998;fill:color(display-p3 0.2314 0.3490 0.5961);fill-opacity:1;"/>
<path d="M33.5413 31.7266L34.5276 24.8225H27.7879V20.3842C27.7879 18.4116 28.7742 16.6033 31.7331 16.6033H34.692V10.6855C34.692 10.6855 31.8975 10.1924 29.2673 10.1924C23.8427 10.1924 20.2262 13.4801 20.2262 19.5622V24.8225H14.144V31.7266H20.3906V48.0006H27.9523V31.7266H33.5413Z" fill="white" style="fill:white;fill:white;fill-opacity:1;"/>
</svg>
