<svg width="239" height="236" viewBox="0 0 239 236" fill="none" xmlns="http://www.w3.org/2000/svg">
<g id="Group">
<g id="Group_2">
<path id="Vector" d="M127.976 24.1907C70.226 12.4734 13.9072 49.7659 2.18573 107.485L106.751 128.699L127.976 24.1907Z" fill="#ED8658" style="fill:#ED8658;fill:color(display-p3 0.9294 0.5255 0.3451);fill-opacity:1;"/>
<path id="Vector_2" d="M106.874 128.092L121.98 53.7163C80.8807 45.3798 40.8018 71.9185 32.4587 112.994L106.874 128.092Z" fill="#FFA785" style="fill:#FFA785;fill:color(display-p3 1.0000 0.6549 0.5216);fill-opacity:1;"/>
</g>
<g id="Group_3">
<path id="Vector_3" d="M85.5857 232.906C143.336 244.621 199.655 207.329 211.378 149.61L106.811 128.4L85.5857 232.906Z" fill="#35D888" style="fill:#35D888;fill:color(display-p3 0.2078 0.8471 0.5333);fill-opacity:1;"/>
<path id="Vector_4" d="M106.811 128.4L91.7073 202.771C132.805 211.108 172.884 184.569 181.227 143.493L106.811 128.4Z" fill="#00A596" style="fill:#00A596;fill:color(display-p3 0.0000 0.6471 0.5882);fill-opacity:1;"/>
</g>
<g id="Group_4">
<path id="Vector_5" d="M2.24652 107.181C-9.47495 164.901 27.8292 221.191 85.5857 232.906L106.811 128.4L2.24652 107.181Z" fill="#A6B9F4" style="fill:#A6B9F4;fill:color(display-p3 0.6510 0.7255 0.9569);fill-opacity:1;"/>
<path id="Vector_6" d="M91.7073 202.771L106.811 128.4L32.3979 113.298C24.0569 154.373 50.6078 194.432 91.7073 202.771Z" fill="#1D65D8" style="fill:#1D65D8;fill:color(display-p3 0.1137 0.3961 0.8471);fill-opacity:1;"/>
</g>
<g id="Group_5">
<path id="Vector_7" d="M134.481 0L108.725 126.873L235.666 152.636C249.887 82.557 204.59 14.2245 134.481 0Z" fill="#4770B2" style="fill:#4770B2;fill:color(display-p3 0.2784 0.4392 0.6980);fill-opacity:1;"/>
<path id="Vector_8" d="M127.052 36.5825L108.725 126.873L199.051 145.201C209.18 95.3364 176.945 46.71 127.052 36.5825Z" fill="#A8D1FF" style="fill:#A8D1FF;fill:color(display-p3 0.6588 0.8196 1.0000);fill-opacity:1;"/>
</g>
<path id="Vector_9" d="M106.874 169.282C129.635 169.282 148.087 150.841 148.087 128.092C148.087 105.343 129.635 86.9014 106.874 86.9014C84.113 86.9014 65.6615 105.343 65.6615 128.092C65.6615 150.841 84.113 169.282 106.874 169.282Z" fill="white" style="fill:white;fill:white;fill-opacity:1;"/>
<g id="Group_6">
<path id="Vector_10" d="M2.60769 105.346L1.98715 108.402L211.122 150.814L211.742 147.758L2.60769 105.346Z" fill="white" style="fill:white;fill:white;fill-opacity:1;"/>
<path id="Vector_11" d="M126.829 23.4096L84.1497 232.426L87.2079 233.05L129.887 24.0334L126.829 23.4096Z" fill="white" style="fill:white;fill:white;fill-opacity:1;"/>
</g>
<g id="Group_7">
<path id="Vector_12" d="M88.5679 133.508C88.5679 130.367 90.1879 128.023 92.9145 127C91.2567 126.123 89.6724 124.585 89.6724 121.697C89.6724 117.298 92.73 115.333 97.1856 115.333C101.641 115.333 104.701 117.309 104.701 121.697C104.701 124.585 103.117 126.123 101.459 127C104.183 128.023 105.803 130.352 105.803 133.508C105.803 138.481 102.305 140.967 97.1856 140.967C92.0657 140.967 88.5679 138.481 88.5679 133.508ZM90.999 133.508C90.999 137.166 93.5411 138.774 97.1856 138.774C100.83 138.774 103.372 137.166 103.372 133.508C103.372 129.887 101.054 128.205 97.1856 128.205C93.3168 128.205 90.999 129.887 90.999 133.508ZM92.1034 121.697C92.1034 124.585 94.0923 126.012 97.1856 126.012C100.279 126.012 102.268 124.585 102.268 121.697C102.268 118.882 100.354 117.529 97.1856 117.529C94.0168 117.529 92.1034 118.882 92.1034 121.697Z" fill="#929497" style="fill:#929497;fill:color(display-p3 0.5725 0.5804 0.5922);fill-opacity:1;"/>
<path id="Vector_13" d="M117.485 125.536C123.487 125.536 125.292 129.34 125.292 133.435C125.292 138.225 122.383 140.976 116.785 140.976C112.845 140.976 110.303 139.22 108.865 136.843C108.744 136.656 108.68 136.437 108.683 136.215C108.68 136.069 108.708 135.925 108.762 135.79C108.817 135.656 108.898 135.534 109.002 135.431C109.105 135.329 109.227 135.248 109.362 135.194C109.497 135.14 109.642 135.114 109.787 135.117C109.991 135.113 110.192 135.165 110.367 135.268C110.542 135.371 110.686 135.521 110.781 135.701C111.923 137.568 113.801 138.774 116.785 138.774C120.872 138.774 122.863 136.835 122.863 133.435C122.863 130.109 121.498 127.729 117.3 127.729H114.723C114.578 127.732 114.433 127.706 114.298 127.652C114.163 127.599 114.041 127.518 113.938 127.416C113.835 127.314 113.753 127.192 113.698 127.057C113.644 126.923 113.616 126.779 113.618 126.634C113.613 126.349 113.718 126.074 113.912 125.865L120.689 118.04H111.187C110.896 118.04 110.617 117.924 110.411 117.718C110.205 117.512 110.089 117.233 110.089 116.942C110.089 116.651 110.205 116.372 110.411 116.166C110.617 115.96 110.896 115.844 111.187 115.844H123.185C123.331 115.841 123.475 115.868 123.61 115.922C123.745 115.976 123.868 116.056 123.971 116.159C124.074 116.261 124.155 116.383 124.21 116.518C124.265 116.652 124.292 116.797 124.29 116.942C124.292 117.226 124.187 117.5 123.996 117.711L117.108 125.536H117.485Z" fill="#929497" style="fill:#929497;fill:color(display-p3 0.5725 0.5804 0.5922);fill-opacity:1;"/>
</g>
</g>
</svg>
