<svg width="483" height="260" viewBox="0 0 483 260" fill="none" xmlns="http://www.w3.org/2000/svg">
<path d="M202.816 137.636L100.663 137.402V130.275H202.816V137.636Z" fill="#ACCEED" style="fill:#ACCEED;fill:color(display-p3 0.6745 0.8078 0.9294);fill-opacity:1;"/>
<path d="M252.557 121.43L154.328 121.196V114.069H252.557V121.43Z" fill="#FAAF70" style="fill:#FAAF70;fill:color(display-p3 0.9804 0.6863 0.4392);fill-opacity:1;"/>
<path d="M188.336 170.02L154.328 169.786V162.659H188.336V170.02Z" fill="#ACCEED" style="fill:#ACCEED;fill:color(display-p3 0.6745 0.8078 0.9294);fill-opacity:1;"/>
<path d="M188.336 88.925L154.328 88.6908V81.5637H188.336V88.925Z" fill="#5BBE82" style="fill:#5BBE82;fill:color(display-p3 0.3569 0.7451 0.5098);fill-opacity:1;"/>
<path d="M186.487 105.174L113.687 104.94V97.8198H186.487V105.174Z" fill="#FAAF70" style="fill:#FAAF70;fill:color(display-p3 0.9804 0.6863 0.4392);fill-opacity:1;"/>
<path d="M134.062 202.667L113.687 202.433V195.306H134.062V202.667Z" fill="#FAAF70" style="fill:#FAAF70;fill:color(display-p3 0.9804 0.6863 0.4392);fill-opacity:1;"/>
<path d="M239.372 40.1714L202.972 39.9371V32.8101H239.372V40.1714Z" fill="#FAAF70" style="fill:#FAAF70;fill:color(display-p3 0.9804 0.6863 0.4392);fill-opacity:1;"/>
<path d="M172.923 40.0223L100.663 39.9371V32.8101H173.386L172.923 40.0223Z" fill="#A9B8DE" style="fill:#A9B8DE;fill:color(display-p3 0.6627 0.7216 0.8706);fill-opacity:1;"/>
<path d="M284.751 238.111H87.4727C86.2838 238.109 85.1441 237.637 84.3034 236.799C83.4627 235.961 82.9896 234.824 82.9877 233.639V4.47216C82.9896 3.28665 83.4627 2.15023 84.3034 1.31194C85.1441 0.473653 86.2838 0.0018773 87.4727 0L284.751 0C285.94 0.0018773 287.08 0.473653 287.921 1.31194C288.761 2.15023 289.235 3.28665 289.236 4.47216V233.639C289.235 234.824 288.761 235.961 287.921 236.799C287.08 237.637 285.94 238.109 284.751 238.111ZM87.4727 0.887334C86.526 0.898527 85.6217 1.28092 84.9556 1.9518C84.2894 2.62268 83.915 3.52809 83.9132 4.47216V233.639C83.915 234.583 84.2894 235.488 84.9556 236.159C85.6217 236.83 86.526 237.212 87.4727 237.223H284.751C285.225 237.228 285.694 237.139 286.133 236.96C286.571 236.782 286.969 236.518 287.304 236.184C287.639 235.85 287.904 235.453 288.083 235.016C288.262 234.579 288.351 234.111 288.347 233.639V4.47216C288.335 3.52815 287.952 2.6265 287.279 1.96227C286.606 1.29803 285.698 0.924627 284.751 0.922827L87.4727 0.887334Z" fill="#0E1D2B" style="fill:#0E1D2B;fill:color(display-p3 0.0549 0.1137 0.1686);fill-opacity:1;"/>
<path d="M282.323 14.9571H87.9129C87.7732 14.9571 87.6392 14.9018 87.5404 14.8032C87.4416 14.7047 87.3861 14.5711 87.3861 14.4318C87.3861 14.2925 87.4416 14.1589 87.5404 14.0604C87.6392 13.9618 87.7732 13.9065 87.9129 13.9065H282.323C282.462 13.9065 282.596 13.9618 282.695 14.0604C282.794 14.1589 282.849 14.2925 282.849 14.4318C282.849 14.5711 282.794 14.7047 282.695 14.8032C282.596 14.9018 282.462 14.9571 282.323 14.9571Z" fill="#0E1D2B" style="fill:#0E1D2B;fill:color(display-p3 0.0549 0.1137 0.1686);fill-opacity:1;"/>
<path d="M262.296 101.902H102.464C102.356 101.902 102.253 101.859 102.177 101.783C102.101 101.707 102.058 101.604 102.058 101.497C102.058 101.39 102.101 101.287 102.177 101.211C102.253 101.135 102.356 101.092 102.464 101.092H262.296C262.349 101.092 262.402 101.103 262.451 101.123C262.5 101.143 262.545 101.173 262.583 101.211C262.62 101.248 262.65 101.293 262.671 101.342C262.691 101.391 262.701 101.444 262.701 101.497C262.701 101.55 262.691 101.603 262.671 101.652C262.65 101.701 262.62 101.745 262.583 101.783C262.545 101.821 262.5 101.85 262.451 101.871C262.402 101.891 262.349 101.902 262.296 101.902Z" fill="#0E1D2B" style="fill:#0E1D2B;fill:color(display-p3 0.0549 0.1137 0.1686);fill-opacity:1;"/>
<path d="M263.606 36.913H102.464C102.357 36.9112 102.255 36.868 102.179 36.7925C102.103 36.717 102.06 36.6151 102.058 36.5084C102.06 36.4023 102.103 36.3012 102.179 36.2268C102.255 36.1525 102.357 36.1108 102.464 36.1108H263.606C263.712 36.1108 263.814 36.1525 263.89 36.2268C263.966 36.3012 264.01 36.4023 264.011 36.5084C264.01 36.6151 263.966 36.717 263.891 36.7925C263.815 36.868 263.713 36.9112 263.606 36.913Z" fill="#0E1D2B" style="fill:#0E1D2B;fill:color(display-p3 0.0549 0.1137 0.1686);fill-opacity:1;"/>
<path d="M250.68 118.15H102.467C102.409 118.158 102.351 118.153 102.296 118.136C102.24 118.12 102.189 118.092 102.146 118.054C102.102 118.016 102.067 117.969 102.043 117.916C102.02 117.864 102.007 117.807 102.007 117.749C102.007 117.691 102.02 117.634 102.043 117.582C102.067 117.529 102.102 117.483 102.146 117.445C102.189 117.407 102.24 117.378 102.296 117.362C102.351 117.345 102.409 117.34 102.467 117.348H250.68C250.778 117.361 250.867 117.409 250.932 117.483C250.997 117.556 251.032 117.651 251.032 117.749C251.032 117.847 250.997 117.942 250.932 118.016C250.867 118.089 250.778 118.137 250.68 118.15Z" fill="#0E1D2B" style="fill:#0E1D2B;fill:color(display-p3 0.0549 0.1137 0.1686);fill-opacity:1;"/>
<path d="M199.647 134.406H102.464C102.356 134.406 102.253 134.364 102.177 134.288C102.101 134.212 102.058 134.109 102.058 134.002C102.058 133.894 102.101 133.791 102.177 133.715C102.253 133.64 102.356 133.597 102.464 133.597H199.647C199.701 133.597 199.753 133.607 199.803 133.628C199.852 133.648 199.896 133.678 199.934 133.715C199.972 133.753 200.002 133.798 200.022 133.847C200.043 133.896 200.053 133.948 200.053 134.002C200.053 134.055 200.043 134.107 200.022 134.156C200.002 134.205 199.972 134.25 199.934 134.288C199.896 134.325 199.852 134.355 199.803 134.375C199.753 134.396 199.701 134.406 199.647 134.406Z" fill="#0E1D2B" style="fill:#0E1D2B;fill:color(display-p3 0.0549 0.1137 0.1686);fill-opacity:1;"/>
<path d="M252.245 150.655H101.49C101.433 150.663 101.374 150.658 101.319 150.641C101.264 150.625 101.213 150.596 101.169 150.558C101.126 150.52 101.091 150.474 101.067 150.421C101.043 150.369 101.031 150.312 101.031 150.254C101.031 150.196 101.043 150.139 101.067 150.087C101.091 150.034 101.126 149.988 101.169 149.95C101.213 149.912 101.264 149.883 101.319 149.867C101.374 149.85 101.433 149.845 101.49 149.853H252.245C252.302 149.845 252.361 149.85 252.416 149.867C252.471 149.883 252.522 149.912 252.566 149.95C252.609 149.988 252.644 150.034 252.668 150.087C252.692 150.139 252.704 150.196 252.704 150.254C252.704 150.312 252.692 150.369 252.668 150.421C252.644 150.474 252.609 150.52 252.566 150.558C252.522 150.596 252.471 150.625 252.416 150.641C252.361 150.658 252.302 150.663 252.245 150.655Z" fill="#0E1D2B" style="fill:#0E1D2B;fill:color(display-p3 0.0549 0.1137 0.1686);fill-opacity:1;"/>
<path d="M227.484 166.911H101.475C101.368 166.911 101.265 166.868 101.189 166.793C101.112 166.717 101.07 166.614 101.07 166.506C101.07 166.399 101.112 166.296 101.189 166.22C101.265 166.144 101.368 166.102 101.475 166.102H227.484C227.592 166.102 227.695 166.144 227.771 166.22C227.847 166.296 227.89 166.399 227.89 166.506C227.89 166.614 227.847 166.717 227.771 166.793C227.695 166.868 227.592 166.911 227.484 166.911Z" fill="#0E1D2B" style="fill:#0E1D2B;fill:color(display-p3 0.0549 0.1137 0.1686);fill-opacity:1;"/>
<path d="M252.245 53.1409H101.49C101.433 53.1485 101.374 53.1438 101.319 53.1272C101.264 53.1105 101.213 53.0822 101.169 53.0443C101.126 53.0063 101.091 52.9595 101.067 52.907C101.043 52.8545 101.031 52.7975 101.031 52.7398C101.031 52.6822 101.043 52.6252 101.067 52.5727C101.091 52.5202 101.126 52.4734 101.169 52.4354C101.213 52.3974 101.264 52.3691 101.319 52.3525C101.374 52.3358 101.433 52.3311 101.49 52.3388H252.245C252.302 52.3311 252.361 52.3358 252.416 52.3525C252.471 52.3691 252.522 52.3974 252.566 52.4354C252.609 52.4734 252.644 52.5202 252.668 52.5727C252.692 52.6252 252.704 52.6822 252.704 52.7398C252.704 52.7975 252.692 52.8545 252.668 52.907C252.644 52.9595 252.609 53.0063 252.566 53.0443C252.522 53.0822 252.471 53.1105 252.416 53.1272C252.361 53.1438 252.302 53.1485 252.245 53.1409Z" fill="#0E1D2B" style="fill:#0E1D2B;fill:color(display-p3 0.0549 0.1137 0.1686);fill-opacity:1;"/>
<path d="M266.783 69.3967H101.491C101.384 69.3967 101.28 69.354 101.204 69.2781C101.128 69.2023 101.085 69.0993 101.085 68.992C101.085 68.8847 101.128 68.7818 101.204 68.7059C101.28 68.63 101.384 68.5874 101.491 68.5874H266.783C266.891 68.5874 266.994 68.63 267.07 68.7059C267.146 68.7818 267.189 68.8847 267.189 68.992C267.189 69.0993 267.146 69.2023 267.07 69.2781C266.994 69.354 266.891 69.3967 266.783 69.3967Z" fill="#0E1D2B" style="fill:#0E1D2B;fill:color(display-p3 0.0549 0.1137 0.1686);fill-opacity:1;"/>
<path d="M227.627 85.6455H101.49C101.433 85.6532 101.374 85.6485 101.319 85.6318C101.264 85.6151 101.213 85.5869 101.169 85.5489C101.126 85.5109 101.091 85.4641 101.067 85.4116C101.043 85.3591 101.031 85.3021 101.031 85.2445C101.031 85.1868 101.043 85.1298 101.067 85.0773C101.091 85.0248 101.126 84.978 101.169 84.94C101.213 84.9021 101.264 84.8738 101.319 84.8571C101.374 84.8405 101.433 84.8358 101.49 84.8434H227.627C227.684 84.8358 227.743 84.8405 227.798 84.8571C227.853 84.8738 227.905 84.9021 227.948 84.94C227.992 84.978 228.026 85.0248 228.05 85.0773C228.074 85.1298 228.086 85.1868 228.086 85.2445C228.086 85.3021 228.074 85.3591 228.05 85.4116C228.026 85.4641 227.992 85.5109 227.948 85.5489C227.905 85.5869 227.853 85.6151 227.798 85.6318C227.743 85.6485 227.684 85.6532 227.627 85.6455Z" fill="#0E1D2B" style="fill:#0E1D2B;fill:color(display-p3 0.0549 0.1137 0.1686);fill-opacity:1;"/>
<path d="M252.246 183.146H101.491C101.384 183.146 101.28 183.103 101.204 183.027C101.128 182.951 101.085 182.848 101.085 182.741C101.085 182.634 101.128 182.531 101.204 182.455C101.28 182.379 101.384 182.336 101.491 182.336H252.246C252.354 182.336 252.457 182.379 252.533 182.455C252.609 182.531 252.652 182.634 252.652 182.741C252.652 182.848 252.609 182.951 252.533 183.027C252.457 183.103 252.354 183.146 252.246 183.146Z" fill="#0E1D2B" style="fill:#0E1D2B;fill:color(display-p3 0.0549 0.1137 0.1686);fill-opacity:1;"/>
<path d="M266.782 199.387H101.49C101.433 199.395 101.374 199.39 101.319 199.374C101.264 199.357 101.213 199.329 101.169 199.291C101.126 199.253 101.091 199.206 101.067 199.154C101.043 199.101 101.031 199.044 101.031 198.986C101.031 198.929 101.043 198.872 101.067 198.819C101.091 198.767 101.126 198.72 101.169 198.682C101.213 198.644 101.264 198.616 101.319 198.599C101.374 198.582 101.433 198.578 101.49 198.585H266.782C266.88 198.598 266.969 198.646 267.034 198.72C267.099 198.794 267.135 198.888 267.135 198.986C267.135 199.084 267.099 199.179 267.034 199.253C266.969 199.327 266.88 199.375 266.782 199.387Z" fill="#0E1D2B" style="fill:#0E1D2B;fill:color(display-p3 0.0549 0.1137 0.1686);fill-opacity:1;"/>
<path d="M227.628 215.643H101.491C101.384 215.643 101.28 215.601 101.204 215.525C101.128 215.449 101.085 215.346 101.085 215.239C101.085 215.132 101.128 215.029 101.204 214.953C101.28 214.877 101.384 214.834 101.491 214.834H227.628C227.736 214.834 227.839 214.877 227.915 214.953C227.991 215.029 228.034 215.132 228.034 215.239C228.034 215.346 227.991 215.449 227.915 215.525C227.839 215.601 227.736 215.643 227.628 215.643Z" fill="#0E1D2B" style="fill:#0E1D2B;fill:color(display-p3 0.0549 0.1137 0.1686);fill-opacity:1;"/>
<path d="M40.3939 252.067C40.3939 252.067 42.3018 251.471 46.8011 254.651C48.3032 255.595 51.4499 257.49 54.0626 257.362C54.0626 257.483 57.5439 256.866 56.7964 259.946C56.7964 260.067 37.7883 259.946 37.7883 259.946C37.7883 259.946 35.9942 257.469 37.7384 252.024C38.6215 252.099 39.5088 252.114 40.3939 252.067Z" fill="#0E1D2B" style="fill:#0E1D2B;fill:color(display-p3 0.0549 0.1137 0.1686);fill-opacity:1;"/>
<path d="M4.53557 252.067C4.53557 252.067 6.4435 251.471 10.9428 254.651C12.4449 255.595 15.5916 257.49 18.2043 257.362C18.2043 257.483 21.6856 256.866 20.9452 259.946C20.9452 260.067 1.92997 259.946 1.92997 259.946C1.92997 259.946 0.150179 257.469 1.89437 252.003C2.77226 252.085 3.65474 252.106 4.53557 252.067Z" fill="#0E1D2B" style="fill:#0E1D2B;fill:color(display-p3 0.0549 0.1137 0.1686);fill-opacity:1;"/>
<path d="M41.8234 79.7889C41.8234 79.7889 43.3611 94.3554 40.2572 103.64C41.681 104.89 46.9848 110.54 48.6507 103.215C50.3166 95.8887 46.8068 77.2263 46.8068 77.2263L41.8234 79.7889Z" fill="white" style="fill:white;fill:white;fill-opacity:1;"/>
<path d="M45.6083 107.41C43.6149 107.41 41.529 105.5 40.3401 104.414L39.913 104.024C39.8341 103.958 39.777 103.87 39.7491 103.771C39.7212 103.672 39.7237 103.567 39.7563 103.47C42.7891 94.4052 41.3083 79.9878 41.2941 79.8458C41.2833 79.7417 41.304 79.6367 41.3535 79.5444C41.4029 79.452 41.4789 79.3765 41.5717 79.3276L46.5551 76.7579C46.6284 76.7226 46.7087 76.7043 46.7901 76.7043C46.8714 76.7043 46.9517 76.7226 47.025 76.7579C47.0982 76.7946 47.162 76.8476 47.2114 76.9128C47.2608 76.9781 47.2944 77.0538 47.3098 77.1341C47.4593 77.9007 50.8693 95.9811 49.175 103.328C48.6695 105.557 47.7511 106.878 46.4768 107.296C46.1946 107.377 45.9018 107.415 45.6083 107.41ZM40.8598 103.47L41.0449 103.641C42.1697 104.67 44.5048 106.799 46.1493 106.288C47.0463 106.004 47.7155 104.932 48.1356 103.087C49.5594 96.7406 47.0036 81.4572 46.3914 78.0143L42.3762 80.0942C42.5898 82.4084 43.6007 94.895 40.8598 103.47Z" fill="#0E1D2B" style="fill:#0E1D2B;fill:color(display-p3 0.0549 0.1137 0.1686);fill-opacity:1;"/>
<path d="M46.5969 100.82L151.66 57.8115L142.478 35.5106L37.4152 78.5187L46.5969 100.82Z" fill="white" style="fill:white;fill:white;fill-opacity:1;"/>
<path d="M46.5953 101.334C46.4911 101.334 46.3892 101.303 46.3029 101.245C46.2166 101.186 46.1498 101.104 46.1112 101.007L36.9275 78.7102C36.8775 78.5824 36.8775 78.4405 36.9275 78.3127C36.9534 78.2475 36.9927 78.1885 37.043 78.1396C37.0933 78.0906 37.1534 78.0529 37.2194 78.0287L142.284 35.0179C142.412 34.968 142.554 34.968 142.682 35.0179C142.81 35.0737 142.911 35.175 142.967 35.3018L152.165 57.6059C152.198 57.6705 152.216 57.7412 152.219 57.8134C152.222 57.8855 152.21 57.9575 152.183 58.0246C152.156 58.0917 152.115 58.1523 152.063 58.2025C152.011 58.2527 151.949 58.2913 151.88 58.3157L46.8018 101.298C46.7365 101.325 46.666 101.337 46.5953 101.334ZM38.1022 78.7954L46.8801 100.127L150.976 57.4994L142.198 36.2034L38.1022 78.7954Z" fill="#0E1D2B" style="fill:#0E1D2B;fill:color(display-p3 0.0549 0.1137 0.1686);fill-opacity:1;"/>
<path d="M49.135 98.3735C49.0312 98.3719 48.9301 98.3402 48.8441 98.2822C48.7582 98.2242 48.691 98.1424 48.6509 98.047L40.8198 78.9729C40.7669 78.8439 40.7676 78.6993 40.8217 78.5708C40.8758 78.4423 40.9788 78.3405 41.1081 78.2878C41.2375 78.2351 41.3825 78.2358 41.5113 78.2897C41.6402 78.3436 41.7423 78.4464 41.7951 78.5753L49.6262 97.6495C49.6562 97.7149 49.6725 97.7857 49.674 97.8576C49.6754 97.9295 49.6621 98.001 49.6347 98.0675C49.6073 98.1341 49.5665 98.1943 49.5149 98.2445C49.4632 98.2947 49.4017 98.3338 49.3343 98.3593C49.2696 98.378 49.2017 98.3829 49.135 98.3735Z" fill="#0E1D2B" style="fill:#0E1D2B;fill:color(display-p3 0.0549 0.1137 0.1686);fill-opacity:1;"/>
<path d="M172.925 40.0222L173.473 32.7673L166.226 35.7204L168.696 41.7472L172.925 40.0222Z" fill="#A9B8DE" style="fill:#A9B8DE;fill:color(display-p3 0.6627 0.7216 0.8706);fill-opacity:1;"/>
<path d="M168.413 42.4285L165.566 35.4363L174.109 31.9651L173.475 40.3841L168.413 42.4285ZM166.911 36.0397L168.983 41.0869L172.429 39.6672L172.891 33.5836L166.911 36.0397Z" fill="#040404" style="fill:#040404;fill:color(display-p3 0.0157 0.0157 0.0157);fill-opacity:1;"/>
<path d="M144.762 40.9947L151.668 57.8257L165.301 45.2326L162.304 37.9281L161.848 36.8065L161.101 34.9963L142.527 35.5429L144.086 39.3407L144.762 40.9947Z" fill="white" style="fill:white;fill:white;fill-opacity:1;"/>
<path d="M151.668 58.3509H151.554C151.472 58.3334 151.394 58.2957 151.33 58.2412C151.265 58.1867 151.215 58.1171 151.184 58.0386L144.279 41.1722L142.043 35.7204C142.011 35.6424 141.998 35.5578 142.005 35.4738C142.013 35.3898 142.04 35.3088 142.086 35.2377C142.133 35.1667 142.196 35.1078 142.27 35.0659C142.345 35.0239 142.428 35.0001 142.513 34.9963L161.087 34.4497C161.193 34.4516 161.297 34.4832 161.386 34.5409C161.476 34.5986 161.547 34.6802 161.592 34.7762L165.785 45.0196C165.827 45.118 165.837 45.2267 165.814 45.3309C165.791 45.4351 165.736 45.5296 165.657 45.6017L152.024 58.209C151.928 58.2992 151.801 58.3499 151.668 58.3509ZM145.261 40.7959L151.875 56.9312L164.689 45.0977L160.759 35.5287L143.31 36.0469L145.261 40.7959Z" fill="#0E1D2B" style="fill:#0E1D2B;fill:color(display-p3 0.0549 0.1137 0.1686);fill-opacity:1;"/>
<path d="M161.275 35.0123L165.3 45.196L169.354 43.6031L165.329 33.4193L161.275 35.0123Z" fill="white" style="fill:white;fill:white;fill-opacity:1;"/>
<path d="M165.286 45.7224C165.215 45.7226 165.145 45.7081 165.08 45.6798C164.952 45.6212 164.851 45.5175 164.795 45.3888L160.773 35.2093C160.743 35.1434 160.727 35.0722 160.726 34.9999C160.725 34.9276 160.739 34.856 160.767 34.7893C160.795 34.7227 160.837 34.6626 160.889 34.6127C160.942 34.5628 161.004 34.5242 161.072 34.4994L165.123 32.9093C165.188 32.8804 165.259 32.865 165.331 32.8641C165.403 32.8631 165.474 32.8766 165.541 32.9038C165.607 32.931 165.667 32.9713 165.718 33.0222C165.768 33.0732 165.808 33.1338 165.835 33.2003L169.857 43.3798C169.887 43.4452 169.903 43.5161 169.905 43.588C169.906 43.6599 169.893 43.7314 169.865 43.7979C169.838 43.8645 169.797 43.9247 169.745 43.9749C169.694 44.0251 169.632 44.0642 169.565 44.0897L165.507 45.6869C165.436 45.7122 165.361 45.7242 165.286 45.7224ZM161.94 35.3158L165.585 44.544L168.661 43.3373L165.023 34.109L161.94 35.3158Z" fill="#0E1D2B" style="fill:#0E1D2B;fill:color(display-p3 0.0549 0.1137 0.1686);fill-opacity:1;"/>
<path d="M37.0033 247.928L38.0498 253.004C38.6876 253.308 39.3831 253.474 40.0902 253.49C40.7972 253.506 41.4995 253.372 42.1504 253.096L42.3782 252.997L43.0902 247.928H37.0033Z" fill="white" style="fill:white;fill:white;fill-opacity:1;"/>
<path d="M40.1969 254.019C39.3703 254.022 38.5542 253.835 37.812 253.472C37.7423 253.436 37.6814 253.384 37.6335 253.322C37.5856 253.259 37.5518 253.187 37.5343 253.11L36.4878 248.028C36.4711 247.952 36.4721 247.874 36.4906 247.799C36.5091 247.724 36.5447 247.654 36.5946 247.595C36.6439 247.535 36.7058 247.487 36.776 247.454C36.8461 247.421 36.9228 247.403 37.0004 247.403H43.1157C43.1908 247.404 43.265 247.42 43.3336 247.451C43.4021 247.481 43.4637 247.525 43.5144 247.581C43.5635 247.638 43.5997 247.705 43.6205 247.777C43.6414 247.849 43.6465 247.925 43.6354 247.999L42.9235 253.075C42.9109 253.163 42.8762 253.246 42.8226 253.316C42.7691 253.387 42.6985 253.443 42.6174 253.48L42.3825 253.579C41.6933 253.878 40.9484 254.028 40.1969 254.019ZM38.5097 252.642C39.5955 253.085 40.8126 253.085 41.8984 252.642L42.5249 248.454H37.6411L38.5097 252.642Z" fill="#0E1D2B" style="fill:#0E1D2B;fill:color(display-p3 0.0549 0.1137 0.1686);fill-opacity:1;"/>
<path d="M2.99741 247.928L2.33533 253.004C2.97217 253.307 3.66643 253.473 4.37214 253.488C5.07784 253.504 5.77888 253.371 6.42884 253.096L6.66377 252.997L9.11275 247.928H2.99741Z" fill="white" style="fill:white;fill:white;fill-opacity:1;"/>
<path d="M4.48574 254.019C3.65911 254.023 2.84282 253.836 2.10083 253.472C2.00367 253.422 1.92426 253.344 1.87334 253.247C1.82241 253.151 1.80242 253.041 1.81607 252.933L2.47815 247.857C2.49385 247.731 2.55547 247.615 2.65128 247.532C2.74709 247.448 2.87043 247.402 2.99784 247.403H9.11319C9.20182 247.404 9.28879 247.427 9.36607 247.47C9.44334 247.514 9.50842 247.576 9.55526 247.651C9.60211 247.726 9.62922 247.811 9.63408 247.9C9.63893 247.988 9.62138 248.076 9.58305 248.156L7.13407 253.224C7.08355 253.336 6.99187 253.425 6.87778 253.472L6.64285 253.579C5.96142 253.871 5.22735 254.021 4.48574 254.019ZM2.90529 252.713C3.98241 253.106 5.16933 253.073 6.22282 252.621H6.27265L8.28025 248.454H3.46059L2.90529 252.713Z" fill="#0E1D2B" style="fill:#0E1D2B;fill:color(display-p3 0.0549 0.1137 0.1686);fill-opacity:1;"/>
<path d="M14.8793 155.461C15.4301 165.214 16.6431 174.919 18.51 184.509C19.393 188.968 19.0836 193.58 17.613 197.883C10.7502 218.213 1.1322 248.78 1.1322 248.78H9.67518C9.67518 248.78 29.0677 212.655 34.0654 194.731C39.063 176.807 39.9173 171.121 39.9173 171.121L33.9871 155.461H14.8793Z" fill="white" style="fill:white;fill:white;fill-opacity:1;"/>
<path d="M9.6885 249.383H1.13129C1.03808 249.386 0.945491 249.368 0.860436 249.329C0.77538 249.291 0.700051 249.235 0.640066 249.163C0.575413 249.086 0.53116 248.993 0.511279 248.894C0.491398 248.795 0.496511 248.692 0.52616 248.596C0.618708 248.29 10.2296 217.794 17.0141 197.691C18.4439 193.49 18.7458 188.99 17.8898 184.637C16.0222 175.027 14.8045 165.304 14.2448 155.532C14.2398 155.45 14.2525 155.367 14.282 155.29C14.3114 155.213 14.357 155.143 14.4156 155.085C14.4714 155.026 14.5387 154.979 14.6135 154.947C14.6882 154.916 14.7687 154.9 14.8499 154.9H33.9861C34.1087 154.9 34.2284 154.937 34.329 155.007C34.4296 155.077 34.5062 155.176 34.5486 155.291L40.5002 170.908C40.5255 171.008 40.5255 171.113 40.5002 171.213C40.5002 171.447 39.5818 177.14 34.634 194.894C29.6862 212.648 10.3933 248.702 10.194 249.064C10.1453 249.157 10.0729 249.235 9.98418 249.291C9.89545 249.347 9.79347 249.379 9.6885 249.383ZM1.94999 248.177H9.32542C11.2476 244.556 28.8176 211.335 33.5305 194.568C38.0227 178.468 39.1689 172.2 39.3397 171.185L33.6017 156.079H15.5191C16.0818 165.587 17.2709 175.049 19.0787 184.402C19.9796 188.952 19.6729 193.658 18.1888 198.053C12.0165 216.36 3.50908 243.257 1.94999 248.177Z" fill="#0E1D2B" style="fill:#0E1D2B;fill:color(display-p3 0.0549 0.1137 0.1686);fill-opacity:1;"/>
<path d="M62.6187 77.7518C62.6187 76.9709 62.6187 76.041 62.4621 76.332C64.5552 68.5732 62.8181 65.5918 62.6686 65.684C62.3793 65.3993 62.0268 65.1867 61.6396 65.0633C61.2524 64.94 60.8415 64.9094 60.4403 64.9742C57.792 63.2492 56.6102 64.0017 56.482 63.9875C54.8731 62.731 54.1185 64.5624 54.0259 64.7754C53.0293 69.567 56.8024 74.5361 56.8024 74.5361C55.9481 83.2249 55.2647 100.531 55.2647 100.531C51.7651 101.686 48.1436 102.434 44.472 102.76L48.1526 117.526C48.1526 117.526 59.6501 113.877 63.2524 108.965C63.9643 107.957 64.3202 105.997 64.3772 103.548C64.7616 97.5429 63.174 82.4085 62.6187 77.7518Z" fill="white" style="fill:white;fill:white;fill-opacity:1;"/>
<path d="M48.1522 118.065C48.0629 118.064 47.9751 118.042 47.8959 118.001C47.8343 117.965 47.7805 117.917 47.7378 117.86C47.695 117.802 47.6641 117.737 47.6467 117.668L43.9519 102.931C43.9338 102.857 43.932 102.78 43.9468 102.705C43.9615 102.63 43.9924 102.56 44.0373 102.498C44.0829 102.438 44.1406 102.387 44.2069 102.351C44.2731 102.314 44.3463 102.292 44.4218 102.285C47.9284 101.965 51.3897 101.265 54.7445 100.198C54.8513 97.6992 55.4564 82.6997 56.2538 74.7279C55.5846 73.7838 52.5661 69.2265 53.5058 64.7117C53.613 64.3453 53.8066 64.0097 54.0704 63.7331C54.3342 63.4565 54.6605 63.2468 55.0222 63.1216C55.2925 63.0631 55.5722 63.0633 55.8425 63.1221C56.1127 63.1809 56.3671 63.2969 56.5884 63.4623C57.7132 63.1784 59.0374 63.5191 60.5395 64.4633C60.9833 64.4232 61.4306 64.4778 61.8517 64.6234C62.2727 64.7691 62.6578 65.0025 62.9814 65.308H63.0241C63.6719 65.8049 64.8466 69.2975 63.0241 76.1903C63.1174 76.6933 63.1509 77.2056 63.1238 77.7165C63.6363 82.3022 65.2595 97.5431 64.8751 103.605C64.811 106.395 64.4123 108.262 63.6506 109.284C59.9913 114.253 48.7716 117.881 48.2946 118.03C48.2486 118.047 48.2009 118.059 48.1522 118.065ZM45.1266 103.25L48.5295 116.866C50.8076 116.085 59.7991 112.798 62.8248 108.681C63.4441 107.836 63.793 106.111 63.8499 103.556C64.2343 97.5431 62.6041 82.3306 62.0986 77.8088C62.0955 77.79 62.0955 77.7708 62.0986 77.752C62.0986 77.1983 62.0986 76.8788 62.0986 76.7085C62.0417 76.6419 62.0016 76.5626 61.9818 76.4774C61.962 76.3922 61.963 76.3034 61.9847 76.2187C63.8713 69.262 62.5898 66.4864 62.3976 66.1315C62.3682 66.1117 62.3419 66.0877 62.3193 66.0605C62.0972 65.8522 61.833 65.6938 61.5445 65.5959C61.2559 65.4979 60.9496 65.4627 60.6463 65.4926C60.5711 65.5185 60.4908 65.5269 60.4118 65.5171C60.3328 65.5072 60.2572 65.4794 60.1907 65.4358C58.7668 64.5271 57.6491 64.2006 56.7806 64.4775C56.6703 64.5125 56.5544 64.527 56.4389 64.52C56.3519 64.5049 56.2693 64.471 56.1968 64.4207C56.0847 64.3071 55.9485 64.2201 55.7982 64.1661C55.6478 64.112 55.4873 64.0923 55.3283 64.1083C55.1428 64.1923 54.9776 64.3149 54.8437 64.468C54.7098 64.6211 54.6105 64.801 54.5523 64.9957C53.6411 69.3968 57.2149 74.2239 57.2576 74.2239C57.3355 74.3304 57.371 74.462 57.3573 74.5931C56.5172 83.1683 55.8338 100.39 55.8266 100.56C55.8201 100.664 55.7838 100.764 55.722 100.849C55.6602 100.933 55.5754 100.998 55.4778 101.036C52.1205 102.155 48.6487 102.897 45.1266 103.25Z" fill="#0E1D2B" style="fill:#0E1D2B;fill:color(display-p3 0.0549 0.1137 0.1686);fill-opacity:1;"/>
<path d="M54.0257 64.7969C54.0257 64.7969 54.0257 64.7969 54.0257 64.74C54.0115 64.8325 54.0115 64.8397 54.0257 64.7969Z" fill="white" style="fill:white;fill:white;fill-opacity:1;"/>
<path d="M54.0033 65.3434C53.9515 65.3535 53.8983 65.3535 53.8466 65.3434C53.7337 65.2915 53.6403 65.2049 53.5801 65.0964C53.5199 64.9879 53.4961 64.863 53.512 64.74C53.5086 64.7046 53.5086 64.6689 53.512 64.6335C53.5287 64.5672 53.5583 64.5048 53.5992 64.45C53.6401 64.3951 53.6914 64.3489 53.7503 64.3139C53.8092 64.279 53.8745 64.256 53.9423 64.2462C54.0102 64.2365 54.0793 64.2403 54.1456 64.2573C54.2802 64.2909 54.3961 64.3761 54.4681 64.4944C54.5401 64.6127 54.5624 64.7545 54.5301 64.8891C54.5333 64.9363 54.5333 64.9838 54.5301 65.031C54.4827 65.1289 54.4075 65.2107 54.3138 65.2663C54.2201 65.3218 54.1121 65.3486 54.0033 65.3434ZM53.6829 64.7187H53.512H53.6829Z" fill="#0E1D2B" style="fill:#0E1D2B;fill:color(display-p3 0.0549 0.1137 0.1686);fill-opacity:1;"/>
<path d="M42.7853 155.461H14.8783V119.776C14.8778 116.002 16.2896 112.364 18.8376 109.574C21.3855 106.784 24.886 105.043 28.6538 104.691L48.0606 102.348C48.0606 102.348 50.3459 105.834 56.7033 113.926C51.5471 116.957 45.9998 119.272 40.2153 120.805L42.7853 155.461Z" fill="white" style="fill:white;fill:white;fill-opacity:1;"/>
<path d="M42.7852 156.078H14.8781C14.7176 156.078 14.5637 156.015 14.4502 155.902C14.3367 155.788 14.273 155.635 14.273 155.475V119.776C14.2556 115.848 15.7181 112.056 18.3707 109.152C21.0234 106.248 24.6729 104.443 28.5967 104.095L47.9893 101.752C48.102 101.74 48.2161 101.758 48.319 101.806C48.422 101.853 48.5098 101.928 48.573 102.022C48.573 102.057 50.9152 105.571 57.1801 113.557C57.2325 113.624 57.2704 113.7 57.2913 113.782C57.3121 113.864 57.3155 113.95 57.3011 114.033C57.285 114.116 57.252 114.194 57.2043 114.264C57.1565 114.333 57.095 114.393 57.0234 114.438C51.9593 117.412 46.523 119.706 40.8559 121.259L43.3903 155.461C43.3974 155.628 43.3386 155.791 43.2265 155.915C43.1674 155.97 43.098 156.013 43.0222 156.041C42.9465 156.069 42.8659 156.081 42.7852 156.078ZM15.4761 154.872H42.1302L39.61 120.848C39.5993 120.705 39.64 120.563 39.7248 120.447C39.8096 120.331 39.9329 120.249 40.0728 120.216C45.5746 118.751 50.863 116.582 55.8061 113.763C50.8227 107.417 48.4449 103.995 47.7686 102.994L28.7248 105.294C25.0981 105.613 21.7235 107.278 19.2698 109.96C16.816 112.642 15.4621 116.145 15.4761 119.776V154.872Z" fill="#0E1D2B" style="fill:#0E1D2B;fill:color(display-p3 0.0549 0.1137 0.1686);fill-opacity:1;"/>
<path d="M14.8783 155.461C14.8783 155.461 18.8223 169.658 33.3881 185.623C35.2809 187.511 36.7453 189.782 37.6824 192.283C38.6195 194.784 39.0074 197.456 38.82 200.119L35.8157 248.766H44.5011C44.5011 248.766 55.0801 208.367 52.7949 188.427C50.5096 168.487 42.8281 155.433 42.8281 155.433L14.8783 155.461Z" fill="white" style="fill:white;fill:white;fill-opacity:1;"/>
<path d="M44.4738 249.384H35.7884C35.7058 249.382 35.6243 249.365 35.5485 249.332C35.4728 249.299 35.4043 249.251 35.347 249.192C35.2909 249.133 35.248 249.062 35.221 248.985C35.194 248.908 35.1836 248.826 35.1904 248.745L38.1875 200.098C38.3716 197.521 37.9977 194.934 37.0912 192.514C36.1847 190.094 34.7668 187.896 32.9336 186.071C18.439 170.177 14.3384 155.781 14.2957 155.631C14.2702 155.542 14.2659 155.448 14.2834 155.357C14.3008 155.265 14.3395 155.179 14.3962 155.105C14.4529 155.032 14.5261 154.972 14.6101 154.932C14.694 154.891 14.7862 154.871 14.8795 154.872H42.7865C42.8918 154.872 42.9953 154.899 43.0865 154.951C43.1778 155.004 43.2536 155.079 43.3062 155.17C43.3845 155.298 51.1373 168.594 53.3727 188.406C55.6081 208.218 45.1643 248.525 45.0575 248.929C45.0244 249.059 44.9491 249.174 44.8435 249.256C44.7378 249.338 44.6078 249.383 44.4738 249.384ZM36.4362 248.177H44.0039C45.143 243.683 54.2839 207.005 52.1696 188.548C50.1192 170.631 43.5625 158.137 42.4306 156.086H15.7053C16.7518 159.238 21.4362 171.703 33.8093 185.24C35.7588 187.187 37.2661 189.528 38.2291 192.106C39.192 194.684 39.5882 197.439 39.3907 200.183L36.4362 248.177Z" fill="#0E1D2B" style="fill:#0E1D2B;fill:color(display-p3 0.0549 0.1137 0.1686);fill-opacity:1;"/>
<path d="M354.345 96.2723C352.167 96.6745 349.961 96.9118 347.746 96.9822C344.768 97.0918 341.787 96.9039 338.847 96.4214C334.652 91.8846 331.659 86.375 330.14 80.3926C330.311 76.6068 329.04 72.8967 326.581 70.0072C324.711 67.9163 322.276 66.4078 319.568 65.6628C317.532 71.6115 314.585 83.2676 318.244 96.6344C320.117 103.435 323.035 114.083 333.016 119.109C339.822 122.537 350.444 123.624 357.642 117.597C358.452 116.889 359.204 116.117 359.891 115.29C352.359 112.33 350.53 102.569 354.345 96.2723Z" fill="white" style="fill:white;fill:white;fill-opacity:1;"/>
<path d="M344.851 122.332C340.669 122.313 336.546 121.341 332.798 119.492C322.646 114.374 319.727 103.761 317.798 96.7763C314.345 84.2116 316.616 72.8538 319.129 65.5421C319.165 65.4343 319.242 65.3445 319.343 65.2916C319.444 65.2387 319.561 65.2267 319.671 65.2582C322.462 66.0253 324.971 67.5808 326.896 69.7374C329.439 72.691 330.765 76.496 330.605 80.3855C332.092 86.2332 335.007 91.6229 339.092 96.0735C341.955 96.5303 344.857 96.7086 347.756 96.6059C349.949 96.5354 352.134 96.2981 354.291 95.8961C354.375 95.8824 354.462 95.8924 354.541 95.925C354.621 95.9576 354.689 96.0115 354.739 96.0806C354.785 96.153 354.809 96.2366 354.809 96.322C354.809 96.4074 354.785 96.491 354.739 96.5633C353.756 98.2651 353.146 100.155 352.947 102.109C352.748 104.062 352.966 106.036 353.586 107.9C354.076 109.468 354.908 110.907 356.024 112.115C357.139 113.323 358.51 114.269 360.036 114.885C360.1 114.913 360.157 114.955 360.202 115.008C360.248 115.061 360.281 115.123 360.299 115.19C360.317 115.259 360.317 115.331 360.301 115.4C360.285 115.469 360.253 115.534 360.207 115.588C359.504 116.432 358.735 117.221 357.907 117.945C354.213 120.901 349.587 122.456 344.851 122.332ZM319.834 66.2094C317.421 73.4146 315.328 84.4033 318.66 96.5207C320.546 103.392 323.401 113.778 333.197 118.711C339.939 122.104 350.361 123.098 357.338 117.291C357.976 116.731 358.577 116.131 359.139 115.495C357.624 114.788 356.272 113.775 355.169 112.52C354.066 111.265 353.236 109.796 352.732 108.205C351.5 104.48 351.784 100.422 353.522 96.9041C351.624 97.2256 349.708 97.4224 347.784 97.4933C344.775 97.603 341.763 97.4104 338.793 96.9183C338.694 96.9028 338.604 96.8554 338.536 96.7834C334.282 92.1898 331.252 86.6054 329.723 80.5416C329.716 80.4993 329.716 80.4562 329.723 80.4138C329.899 76.7136 328.649 73.0864 326.227 70.2769C324.51 68.3631 322.298 66.9561 319.834 66.2094Z" fill="#0E1D2B" style="fill:#0E1D2B;fill:color(display-p3 0.0549 0.1137 0.1686);fill-opacity:1;"/>
<path d="M330.142 116.085C330.172 99.7683 328.071 83.5176 323.891 67.7426C321.888 65.427 319.522 63.4494 316.886 61.8862C300.804 52.3882 280.635 62.5251 277.873 63.9661C271.93 84.5333 270.234 106.089 272.89 127.329H329.743C330.007 123.709 330.142 119.968 330.142 116.085Z" fill="white" style="fill:white;fill:white;fill-opacity:1;"/>
<path d="M329.78 127.776H272.927C272.819 127.777 272.714 127.738 272.633 127.668C272.552 127.597 272.499 127.499 272.485 127.393C269.821 106.094 271.516 84.4787 277.469 63.8524C277.485 63.7939 277.513 63.7393 277.551 63.6917C277.589 63.6442 277.636 63.6047 277.689 63.5756C281.498 61.5951 301.303 52.168 317.136 61.517C319.813 63.1049 322.217 65.111 324.256 67.4586C324.304 67.5081 324.338 67.5693 324.355 67.636C328.539 83.4517 330.645 99.7421 330.62 116.099C330.62 119.79 330.485 123.474 330.236 127.364C330.228 127.478 330.177 127.585 330.092 127.662C330.006 127.739 329.895 127.78 329.78 127.776ZM273.318 126.889H329.36C329.595 123.176 329.709 119.641 329.716 116.092C329.738 99.8487 327.651 83.6713 323.508 67.9626C321.544 65.7228 319.237 63.8063 316.674 62.2836C301.474 53.3109 282.381 62.17 278.23 64.2855C272.391 84.6144 270.711 105.906 273.29 126.896L273.318 126.889Z" fill="#0E1D2B" style="fill:#0E1D2B;fill:color(display-p3 0.0549 0.1137 0.1686);fill-opacity:1;"/>
<path d="M274.662 118.732C279.645 105.713 272.803 101.575 277.317 87.1929C278.527 83.3383 280.229 79.7677 280.165 73.9752C280.149 70.4902 279.492 67.0377 278.228 63.7886C265.912 72.378 261.313 82.671 258.572 88.7049C252.97 101.05 249.147 119.385 253.639 127.329H269.963C272.334 124.66 273.722 121.181 274.662 118.732Z" fill="white" style="fill:white;fill:white;fill-opacity:1;"/>
<path d="M269.957 127.776H253.632C253.554 127.777 253.476 127.756 253.409 127.716C253.341 127.676 253.285 127.618 253.248 127.549C248.806 119.698 252.258 101.54 258.16 88.5064L258.224 88.3715C261.001 82.2524 265.642 72.009 277.966 63.4125C278.02 63.3723 278.084 63.3461 278.151 63.3362C278.218 63.3263 278.286 63.333 278.35 63.3558C278.415 63.3735 278.475 63.4066 278.525 63.4523C278.574 63.4981 278.612 63.555 278.635 63.6184C279.923 66.9135 280.589 70.4176 280.6 73.9541C280.664 78.7244 279.546 81.9827 278.464 85.1345C278.215 85.8444 277.973 86.5542 277.752 87.3138C275.552 94.3202 276.086 98.8491 276.606 103.229C277.147 107.836 277.667 112.18 275.089 118.846C274.235 121.054 272.811 124.759 270.291 127.577C270.257 127.636 270.208 127.685 270.149 127.719C270.091 127.754 270.025 127.774 269.957 127.776ZM253.896 126.889H269.757C272.085 124.206 273.438 120.692 274.249 118.576C276.748 112.088 276.25 107.843 275.716 103.357C275.182 98.8704 274.641 94.2563 276.891 87.0298C277.126 86.32 277.375 85.5675 277.603 84.8363C278.656 81.7555 279.738 78.5682 279.688 73.9541C279.676 70.7138 279.1 67.5002 277.987 64.4561C266.212 72.8467 261.713 82.7635 259.007 88.7264L258.95 88.8613C253.212 101.575 249.781 119.151 253.896 126.882V126.889Z" fill="#0E1D2B" style="fill:#0E1D2B;fill:color(display-p3 0.0549 0.1137 0.1686);fill-opacity:1;"/>
<path d="M310.844 66.6068L314.817 60.3742L308.566 56.4131C307.416 56.8318 306.195 57.0223 304.971 56.9739C303.515 56.9174 302.091 56.5314 300.806 55.8452L293.609 58.3014C295.688 60.5658 299.418 64.3423 301.497 66.6068C303.583 65.5988 304.024 63.0575 306.11 62.0778L310.844 66.6068Z" fill="#0E1D2B" style="fill:#0E1D2B;fill:color(display-p3 0.0549 0.1137 0.1686);fill-opacity:1;"/>
<path d="M310.21 45.8364L310.274 58.0461L306.109 61.6381L299.097 57.6699C299.249 54.1442 299.396 50.6186 299.538 47.0929L310.21 45.8364Z" fill="white" style="fill:white;fill:white;fill-opacity:1;"/>
<path d="M306.11 62.0782C306.032 62.0815 305.956 62.0617 305.889 62.0214L298.877 58.0532C298.806 58.0127 298.748 57.9534 298.709 57.882C298.67 57.8106 298.652 57.7298 298.656 57.6486L299.098 47.0716C299.103 46.9671 299.146 46.868 299.217 46.7915C299.289 46.715 299.385 46.6659 299.489 46.6528L310.168 45.3963C310.229 45.3888 310.291 45.3944 310.35 45.4128C310.409 45.4311 310.464 45.4618 310.51 45.5028C310.557 45.5427 310.595 45.5928 310.621 45.6493C310.647 45.7057 310.66 45.7672 310.659 45.8293L310.723 58.0461C310.723 58.109 310.709 58.1712 310.684 58.2286C310.658 58.286 310.62 58.3375 310.574 58.3798L306.402 61.9717C306.321 62.0425 306.217 62.0805 306.11 62.0782ZM299.532 57.4214L306.032 61.0985L309.805 57.8474L309.748 46.3333L299.966 47.4904L299.532 57.4214Z" fill="#0E1D2B" style="fill:#0E1D2B;fill:color(display-p3 0.0549 0.1137 0.1686);fill-opacity:1;"/>
<path d="M313.391 39.6674C313.071 39.1915 312.625 38.8132 312.103 38.5742C311.733 35.5856 310.415 32.7816 308.123 31.1064C306.603 29.956 304.725 29.3755 302.819 29.4666C299.338 29.715 297.238 32.4196 296.889 32.8668C296.011 34.0961 295.396 35.4924 295.082 36.9689C294.769 38.4454 294.763 39.9705 295.067 41.4491C294.848 41.6529 294.668 41.8931 294.533 42.159C293.7 43.9833 295.245 46.4182 296.426 46.4182C296.612 46.4094 296.791 46.3505 296.946 46.2478C297.333 46.8508 297.779 47.4144 298.277 47.9302C299.609 49.2968 301.264 50.3075 303.09 50.8691L307.255 50.7413C308.962 49.4173 310.308 47.6866 311.17 45.7083C311.347 45.2835 311.501 44.8499 311.633 44.4093C311.89 44.4279 312.148 44.399 312.395 44.3241C313.875 43.813 314.431 41.2504 313.391 39.6674Z" fill="white" style="fill:white;fill:white;fill-opacity:1;"/>
<path d="M303.091 51.3164C303.046 51.3232 303.001 51.3232 302.956 51.3164C300.445 50.5793 298.265 49.0025 296.783 46.8513C296.671 46.8874 296.553 46.9066 296.435 46.9081C296.039 46.8623 295.661 46.7215 295.332 46.4977C295.004 46.2739 294.735 45.9738 294.548 45.6232C294.182 45.1024 293.95 44.4992 293.874 43.8675C293.799 43.2358 293.881 42.5952 294.114 42.0029C294.23 41.7435 294.386 41.5039 294.576 41.293C294.294 39.7856 294.32 38.2367 294.654 36.7397C294.988 35.2428 295.623 33.8288 296.52 32.583C297.264 31.5955 298.203 30.771 299.279 30.1605C300.356 29.5499 301.546 29.1664 302.778 29.0336C304.789 28.9193 306.775 29.5289 308.373 30.7515C309.532 31.6684 310.494 32.8083 311.202 34.1034C311.91 35.3985 312.35 36.8223 312.495 38.2903C313.005 38.5617 313.442 38.9512 313.77 39.4261C314.091 39.9535 314.291 40.5448 314.358 41.1581C314.424 41.7714 314.355 42.3919 314.154 42.9754C314.03 43.369 313.819 43.73 313.537 44.0321C313.255 44.3342 312.909 44.5698 312.524 44.7217C312.338 44.7864 312.144 44.8223 311.947 44.8282C311.819 45.2186 311.698 45.538 311.57 45.8575C310.69 47.9235 309.295 49.7315 307.519 51.1105C307.446 51.1739 307.353 51.2092 307.256 51.2099L303.091 51.3377V51.3164ZM296.961 45.8504C297.035 45.8508 297.107 45.8692 297.171 45.9038C297.236 45.9385 297.291 45.9884 297.332 46.0491C297.705 46.6287 298.134 47.1707 298.613 47.6676C299.875 48.9346 301.43 49.8731 303.141 50.4006L307.078 50.2799C308.679 49.0174 309.941 47.3783 310.751 45.5096C310.901 45.1405 311.043 44.743 311.193 44.2532C311.224 44.1566 311.286 44.073 311.37 44.0152C311.453 43.9575 311.554 43.9289 311.655 43.9337C311.849 43.9563 312.046 43.937 312.232 43.8769C312.492 43.7646 312.723 43.5951 312.908 43.3813C313.093 43.1674 313.227 42.9146 313.3 42.6418C313.46 42.1891 313.517 41.7067 313.468 41.2293C313.419 40.7518 313.264 40.2912 313.015 39.8804C312.741 39.4723 312.359 39.148 311.912 38.9434C311.844 38.913 311.785 38.8656 311.742 38.8059C311.698 38.7462 311.671 38.6761 311.662 38.6026C311.278 35.4934 309.925 32.9237 307.861 31.433C306.438 30.3411 304.671 29.79 302.877 29.8784C301.77 30.007 300.7 30.3598 299.735 30.9152C298.769 31.4706 297.927 32.2169 297.26 33.1083C296.419 34.2894 295.83 35.6307 295.531 37.0487C295.232 38.4666 295.23 39.9308 295.523 41.3498C295.536 41.4198 295.531 41.4917 295.51 41.5596C295.489 41.6275 295.452 41.6894 295.402 41.7402C295.217 41.9099 295.065 42.112 294.954 42.3365C294.789 42.7952 294.737 43.2863 294.802 43.769C294.866 44.2518 295.045 44.7122 295.324 45.1121C295.723 45.7226 296.171 45.9924 296.435 45.9924C296.54 45.9761 296.642 45.94 296.734 45.8859C296.801 45.8568 296.874 45.8446 296.947 45.8504H296.961Z" fill="#0E1D2B" style="fill:#0E1D2B;fill:color(display-p3 0.0549 0.1137 0.1686);fill-opacity:1;"/>
<path d="M305.16 49.4846C303.573 49.5201 301.95 50.6346 302.064 51.3729C302.178 52.1111 303.936 52.4732 305.217 52.3809C306.499 52.2886 308.101 51.7349 308.122 50.9612C308.143 50.1874 306.57 49.4491 305.16 49.4846Z" fill="#0E1D2B" style="fill:#0E1D2B;fill:color(display-p3 0.0549 0.1137 0.1686);fill-opacity:1;"/>
<path d="M302.69 40.8954C302.615 40.8954 302.542 40.8655 302.489 40.8123C302.436 40.759 302.406 40.6868 302.406 40.6115C302.406 40.5362 302.436 40.464 302.489 40.4107C302.542 40.3575 302.615 40.3275 302.69 40.3275L304.947 40.1785C305.015 40.1841 305.079 40.2139 305.127 40.2626C305.175 40.3112 305.204 40.3755 305.208 40.4435C305.212 40.5116 305.192 40.5789 305.151 40.6332C305.109 40.6875 305.05 40.7252 304.983 40.7393L302.726 40.8954H302.69Z" fill="#0E1D2B" style="fill:#0E1D2B;fill:color(display-p3 0.0549 0.1137 0.1686);fill-opacity:1;"/>
<path d="M308.884 29.8143C308.236 28.3945 307.688 27.1807 306.613 26.2649C302.854 23.1628 295.222 25.981 295.222 27.1452C295.222 27.4291 295.713 27.784 297.621 28.1532C296.798 28.3477 296.054 28.7857 295.485 29.4096C294.702 30.297 294.247 31.6528 294.603 31.9297C294.959 32.2065 296.098 31.3476 296.617 30.9217C296.025 31.234 295.533 31.7068 295.198 32.2858C294.863 32.8647 294.698 33.5262 294.724 34.1941C294.762 34.7317 294.92 35.2541 295.184 35.724C295.449 36.194 295.814 36.6 296.254 36.9129C296.872 35.8712 297.695 34.9654 298.674 34.2504C299.653 33.5353 300.767 33.0259 301.95 32.7531C306.691 31.7522 310.122 35.3441 310.286 35.5216C310.173 33.5496 309.697 31.6151 308.884 29.8143Z" fill="#0E1D2B" style="fill:#0E1D2B;fill:color(display-p3 0.0549 0.1137 0.1686);fill-opacity:1;"/>
<path d="M305.937 66.2305C305.937 66.2305 312.479 90.9906 307.539 123.808L305.937 66.2305Z" fill="white" style="fill:white;fill:white;fill-opacity:1;"/>
<path d="M307.532 124.227H307.461C307.403 124.218 307.348 124.198 307.298 124.168C307.248 124.138 307.205 124.098 307.17 124.051C307.136 124.005 307.111 123.951 307.097 123.895C307.084 123.838 307.081 123.78 307.09 123.723C311.96 91.3739 305.567 66.564 305.503 66.3227C305.472 66.2088 305.488 66.0875 305.547 65.9851C305.605 65.8827 305.702 65.8076 305.816 65.7761C305.873 65.7612 305.932 65.7576 305.99 65.7657C306.048 65.7737 306.103 65.7932 306.154 65.8229C306.204 65.8526 306.248 65.892 306.283 65.9388C306.318 65.9856 306.343 66.0389 306.357 66.0955C306.428 66.344 312.871 91.3171 307.966 123.857C307.951 123.961 307.898 124.055 307.818 124.123C307.739 124.191 307.637 124.228 307.532 124.227Z" fill="#0E1D2B" style="fill:#0E1D2B;fill:color(display-p3 0.0549 0.1137 0.1686);fill-opacity:1;"/>
<path d="M289.66 85.5886L301.869 86.5682L301.648 90.2454" fill="white" style="fill:white;fill:white;fill-opacity:1;"/>
<path d="M301.664 90.6854C301.546 90.6781 301.436 90.6248 301.357 90.5371C301.278 90.4494 301.238 90.3344 301.243 90.2169L301.436 86.9799L289.661 86.0287C289.603 86.0242 289.546 86.0083 289.494 85.9819C289.442 85.9556 289.396 85.9192 289.358 85.875C289.321 85.8308 289.292 85.7796 289.274 85.7244C289.257 85.6691 289.25 85.6109 289.255 85.553C289.258 85.4948 289.274 85.4379 289.3 85.3858C289.326 85.3336 289.362 85.2872 289.407 85.2494C289.451 85.2117 289.503 85.1832 289.559 85.1659C289.615 85.1485 289.674 85.1426 289.732 85.1484L301.941 86.128C302.056 86.1389 302.163 86.1937 302.238 86.281C302.314 86.3683 302.353 86.4813 302.347 86.5965L302.133 90.2666C302.126 90.384 302.073 90.4937 301.985 90.5721C301.897 90.6505 301.781 90.6912 301.664 90.6854Z" fill="#0E1D2B" style="fill:#0E1D2B;fill:color(display-p3 0.0549 0.1137 0.1686);fill-opacity:1;"/>
<path d="M325.913 85.5889L313.71 86.5685L313.924 90.2456" fill="white" style="fill:white;fill:white;fill-opacity:1;"/>
<path d="M313.925 90.6855C313.812 90.684 313.704 90.64 313.622 90.5623C313.54 90.4847 313.491 90.3791 313.484 90.2667L313.27 86.5967C313.262 86.481 313.3 86.367 313.376 86.2793C313.452 86.1915 313.56 86.1373 313.676 86.1282L325.871 85.184C325.929 85.1794 325.987 85.1862 326.042 85.204C326.098 85.2218 326.149 85.2503 326.193 85.2879C326.238 85.3254 326.274 85.3713 326.301 85.4229C326.327 85.4746 326.343 85.5309 326.348 85.5887C326.352 85.6465 326.346 85.7046 326.328 85.7598C326.31 85.815 326.281 85.8661 326.244 85.9103C326.206 85.9544 326.16 85.9908 326.108 86.0172C326.056 86.0436 326 86.0596 325.942 86.0643L314.174 87.0155L314.366 90.2525C314.372 90.37 314.331 90.485 314.253 90.5727C314.174 90.6604 314.064 90.7137 313.946 90.721L313.925 90.6855Z" fill="#0E1D2B" style="fill:#0E1D2B;fill:color(display-p3 0.0549 0.1137 0.1686);fill-opacity:1;"/>
<path d="M310.335 44.452C309.657 43.4805 308.799 42.647 307.808 41.9958C306.52 41.1457 304.974 40.7745 303.439 40.9471C301.904 41.1197 300.48 41.8252 299.414 42.9399C298.929 43.5582 298.525 44.2357 298.211 44.956C297.608 46.3636 297.35 47.8941 297.457 49.421C298.759 49.3814 300.026 48.9834 301.116 48.271C302.66 47.2186 303.744 45.6196 304.149 43.7989C304.535 45.0865 305.361 46.1989 306.484 46.9436C307.263 47.4137 308.139 47.7031 309.046 47.7904C309.953 47.8776 310.868 47.7605 311.723 47.4476C311.441 46.3754 310.971 45.3613 310.335 44.452Z" fill="#0E1D2B" style="fill:#0E1D2B;fill:color(display-p3 0.0549 0.1137 0.1686);fill-opacity:1;"/>
<path d="M360.92 89.6777C360.676 89.9161 360.496 90.2124 360.397 90.5389C360.299 90.8654 360.285 91.2115 360.357 91.5447C360.514 92.2191 361.034 92.865 360.863 93.5394C360.755 93.7765 360.692 94.0317 360.678 94.2919C360.713 94.5971 360.998 94.8101 361.126 95.0869C361.418 95.7329 360.799 96.5067 360.97 97.1668C361.059 97.4225 361.23 97.6421 361.456 97.792C361.682 97.9419 361.952 98.0141 362.223 97.9974C362.764 97.9567 363.284 97.7675 363.725 97.4508C364.181 97.1802 364.616 96.8765 365.028 96.5422" fill="white" style="fill:white;fill:white;fill-opacity:1;"/>
<path d="M362.18 98.2813C361.849 98.2951 361.522 98.1996 361.251 98.0097C360.979 97.8198 360.778 97.5461 360.678 97.2307C360.614 96.8522 360.648 96.4635 360.778 96.102C360.904 95.8208 360.929 95.505 360.849 95.2076C360.803 95.1133 360.746 95.0251 360.678 94.9449C360.515 94.7855 360.408 94.577 360.374 94.3513C360.341 94.1257 360.383 93.8954 360.493 93.6956C360.493 93.6175 360.55 93.5465 360.571 93.4755C360.611 93.0878 360.526 92.6975 360.329 92.361C360.22 92.115 360.13 91.8611 360.059 91.6014C359.977 91.2214 359.993 90.8269 360.105 90.4546C360.217 90.0823 360.421 89.7443 360.699 89.4718C360.755 89.4237 360.827 89.3987 360.9 89.4022C360.973 89.4056 361.043 89.4373 361.093 89.4904C361.144 89.5436 361.172 89.6142 361.171 89.6875C361.171 89.7607 361.142 89.831 361.091 89.8836C360.883 90.0879 360.73 90.3416 360.646 90.6209C360.563 90.9002 360.552 91.196 360.614 91.4808C360.677 91.7061 360.755 91.9267 360.849 92.1409C361.101 92.5869 361.196 93.1042 361.119 93.6104C361.119 93.7026 361.055 93.802 361.02 93.8943C360.965 94.0097 360.936 94.1357 360.934 94.2634C360.971 94.3904 361.037 94.5072 361.127 94.6042C361.218 94.7186 361.297 94.8423 361.361 94.9733C361.507 95.3916 361.494 95.8485 361.326 96.2582C361.222 96.5246 361.188 96.8127 361.226 97.0958C361.299 97.2866 361.431 97.4497 361.602 97.5618C361.773 97.6739 361.976 97.7295 362.18 97.7205C362.671 97.6742 363.141 97.4977 363.54 97.2094C363.973 96.9379 364.387 96.6367 364.779 96.3079C364.805 96.2812 364.836 96.2601 364.87 96.2456C364.904 96.2312 364.941 96.2237 364.978 96.2237C365.015 96.2237 365.052 96.2312 365.086 96.2456C365.12 96.2601 365.151 96.2812 365.177 96.3079C365.23 96.3609 365.259 96.4323 365.259 96.5066C365.259 96.5809 365.23 96.6523 365.177 96.7054C364.768 97.0569 364.332 97.3773 363.875 97.6637C363.388 98.0062 362.817 98.2099 362.223 98.2529L362.18 98.2813Z" fill="#0E1D2B" style="fill:#0E1D2B;fill:color(display-p3 0.0549 0.1137 0.1686);fill-opacity:1;"/>
<path d="M357.812 122.388L371.111 72.6835L347.753 66.4651L332.788 122.388H357.812Z" fill="white" style="fill:white;fill:white;fill-opacity:1;"/>
<path d="M357.812 122.906H332.788C332.708 122.907 332.629 122.889 332.557 122.854C332.485 122.819 332.422 122.768 332.373 122.705C332.324 122.642 332.291 122.568 332.275 122.49C332.259 122.411 332.262 122.331 332.283 122.253L347.233 66.3301C347.25 66.2631 347.279 66.2002 347.321 66.1451C347.362 66.0899 347.415 66.0437 347.475 66.0092C347.534 65.9747 347.601 65.9527 347.669 65.9444C347.738 65.9361 347.807 65.9417 347.874 65.9609L371.239 72.1723C371.373 72.2104 371.487 72.2994 371.556 72.4201C371.625 72.5408 371.644 72.6837 371.609 72.8183L358.311 122.509C358.283 122.62 358.219 122.72 358.129 122.792C358.039 122.863 357.927 122.904 357.812 122.906ZM333.472 121.863H357.413L370.47 73.0525L348.13 67.1038L333.472 121.863Z" fill="#0E1D2B" style="fill:#0E1D2B;fill:color(display-p3 0.0549 0.1137 0.1686);fill-opacity:1;"/>
<path d="M362.713 43.153L369.854 41.6836L367.846 49.2224L361.538 47.5542L362.713 43.153Z" fill="#ACCEED" style="fill:#ACCEED;fill:color(display-p3 0.6745 0.8078 0.9294);fill-opacity:1;"/>
<path d="M368.223 49.8682L360.898 47.9303L362.286 42.7057L370.58 40.9949L368.223 49.8682ZM362.179 47.1849L367.476 48.6047L369.127 42.3862L363.14 43.6214L362.179 47.1849Z" fill="#030303" style="fill:#030303;fill:color(display-p3 0.0118 0.0118 0.0118);fill-opacity:1;"/>
<path d="M365.361 71.1287L347.734 66.4648L358.505 51.366L366.158 53.3891L367.333 53.7014L369.226 54.1983L371.07 72.6407L367.091 71.5901L365.361 71.1287Z" fill="white" style="fill:white;fill:white;fill-opacity:1;"/>
<path d="M371.071 73.1659C371.026 73.1733 370.98 73.1733 370.935 73.1659L365.24 71.6539L347.613 66.9901C347.531 66.9691 347.456 66.9283 347.394 66.8713C347.332 66.8144 347.285 66.743 347.257 66.6636C347.228 66.5838 347.219 66.4984 347.231 66.4145C347.242 66.3305 347.273 66.2504 347.321 66.1808L358.092 51.082C358.155 50.9955 358.242 50.9297 358.342 50.893C358.442 50.8563 358.551 50.8504 358.655 50.8761L369.376 53.7156C369.479 53.7437 369.57 53.8022 369.639 53.8833C369.708 53.9644 369.75 54.0643 369.761 54.1699L371.605 72.6264C371.614 72.7098 371.603 72.7942 371.572 72.8722C371.541 72.9502 371.491 73.0194 371.427 73.0737C371.322 73.1433 371.196 73.1758 371.071 73.1659ZM365.496 70.6246L370.48 71.9379L368.75 54.6171L358.719 51.9622L348.603 66.1595L365.496 70.6246Z" fill="#0E1D2B" style="fill:#0E1D2B;fill:color(display-p3 0.0549 0.1137 0.1686);fill-opacity:1;"/>
<path d="M370.258 49.8145L359.613 47.1423L358.549 51.3553L369.195 54.0275L370.258 49.8145Z" fill="white" style="fill:white;fill:white;fill-opacity:1;"/>
<path d="M369.184 54.5676H369.055L358.419 51.8985C358.352 51.8819 358.289 51.8522 358.233 51.8111C358.177 51.7699 358.13 51.7182 358.094 51.6588C358.058 51.5994 358.035 51.5336 358.024 51.4651C358.014 51.3966 358.018 51.3268 358.035 51.2596L359.103 47.043C359.118 46.9764 359.146 46.9136 359.186 46.8586C359.227 46.8036 359.278 46.7576 359.338 46.7236C359.397 46.6881 359.463 46.6649 359.531 46.6551C359.6 46.6454 359.67 46.6493 359.736 46.6668L370.38 49.3359C370.514 49.371 370.63 49.4579 370.701 49.5776C370.771 49.6974 370.792 49.8402 370.757 49.9748L369.696 54.1843C369.68 54.2522 369.65 54.3161 369.609 54.3722C369.567 54.4283 369.514 54.4754 369.454 54.5108C369.371 54.5548 369.277 54.5745 369.184 54.5676ZM359.181 51.0183L368.806 53.4318L369.611 50.2303L359.993 47.8168L359.181 51.0183Z" fill="#0E1D2B" style="fill:#0E1D2B;fill:color(display-p3 0.0549 0.1137 0.1686);fill-opacity:1;"/>
<path d="M365.437 106.395C364.953 107.027 364.511 107.573 364.077 108.077C361.456 108.002 358.842 107.779 356.246 107.41C354.73 107.41 351.754 106.878 351.626 106.523C353.072 105.688 354.634 105.071 356.26 104.691L356.025 104.578C354.409 104.627 350.9 104.123 350.757 103.733C351.619 102.498 355.598 101.383 355.598 101.383C353.954 101.213 352.039 100.78 351.911 100.489C354.146 99.1958 356.626 98.3766 359.193 98.0823H359.435H359.642C360.379 98.0367 361.119 98.0367 361.856 98.0823C362.923 98.141 363.95 98.5085 364.81 99.14C365.781 100.079 366.379 101.336 366.494 102.679C366.609 104.023 366.234 105.362 365.437 106.452" fill="white" style="fill:white;fill:white;fill-opacity:1;"/>
<path d="M364.076 108.482C361.436 108.411 358.802 108.185 356.188 107.807H356.138C355.319 107.807 351.539 107.445 351.254 106.657C351.223 106.568 351.223 106.47 351.256 106.381C351.288 106.292 351.351 106.216 351.432 106.168C352.314 105.656 353.241 105.226 354.202 104.883C352.6 104.741 350.585 104.421 350.379 103.861C350.357 103.8 350.35 103.734 350.358 103.67C350.367 103.606 350.391 103.545 350.429 103.491C350.991 102.696 352.564 101.987 353.839 101.532C352.806 101.341 351.703 101.035 351.539 100.617C351.507 100.528 351.507 100.431 351.539 100.343C351.572 100.254 351.635 100.18 351.717 100.134C354 98.8108 356.533 97.9745 359.157 97.6777L359.626 97.6351C360.369 97.5936 361.113 97.5936 361.855 97.6351C362.999 97.6994 364.1 98.094 365.023 98.7709C366.065 99.7789 366.71 101.126 366.841 102.568C366.971 104.01 366.579 105.451 365.735 106.629C365.251 107.268 364.802 107.815 364.368 108.333C364.294 108.419 364.189 108.472 364.076 108.482ZM356.245 107.012C358.784 107.373 361.341 107.591 363.905 107.666C364.29 107.211 364.681 106.721 365.108 106.168C367.628 102.207 364.674 99.4949 364.546 99.3814C363.753 98.8102 362.811 98.4799 361.833 98.4301C361.122 98.3857 360.409 98.3857 359.698 98.4301H359.662L359.263 98.4656C357.006 98.7193 354.816 99.391 352.806 100.446C353.741 100.692 354.693 100.865 355.654 100.964C355.748 100.975 355.835 101.018 355.901 101.085C355.967 101.152 356.008 101.24 356.017 101.333C356.025 101.427 355.999 101.521 355.945 101.598C355.89 101.674 355.81 101.729 355.718 101.752C354.785 102.015 352.429 102.796 351.447 103.598C352.95 103.965 354.491 104.15 356.038 104.152C356.107 104.149 356.176 104.163 356.238 104.194L356.466 104.308C356.541 104.344 356.603 104.404 356.643 104.478C356.683 104.552 356.698 104.636 356.686 104.72C356.678 104.801 356.643 104.878 356.588 104.939C356.534 105 356.461 105.043 356.38 105.06C355.048 105.376 353.759 105.853 352.543 106.48C353.73 106.785 354.948 106.959 356.174 106.998L356.245 107.012Z" fill="#0E1D2B" style="fill:#0E1D2B;fill:color(display-p3 0.0549 0.1137 0.1686);fill-opacity:1;"/>
<path d="M370.758 106.657H200.724C199.895 106.657 199.222 107.328 199.222 108.155V222.465C199.222 223.292 199.895 223.963 200.724 223.963H370.758C371.587 223.963 372.26 223.292 372.26 222.465V108.155C372.26 107.328 371.587 106.657 370.758 106.657Z" fill="white" style="fill:white;fill:white;fill-opacity:1;"/>
<path d="M368.857 224.411H202.632C201.611 224.411 200.631 224.006 199.909 223.286C199.186 222.565 198.781 221.589 198.781 220.57V110.03C198.781 109.011 199.186 108.034 199.909 107.314C200.631 106.594 201.611 106.189 202.632 106.189H368.857C369.878 106.191 370.856 106.596 371.578 107.316C372.3 108.036 372.707 109.012 372.708 110.03V220.57C372.707 221.588 372.3 222.564 371.578 223.284C370.856 224.003 369.878 224.409 368.857 224.411ZM202.632 107.105C201.846 107.105 201.092 107.416 200.535 107.969C199.979 108.523 199.665 109.274 199.663 110.058V220.57C199.665 221.354 199.979 222.105 200.535 222.659C201.092 223.212 201.846 223.523 202.632 223.523H368.857C369.642 223.521 370.394 223.21 370.949 222.656C371.504 222.103 371.817 221.353 371.819 220.57V110.03C371.819 109.246 371.507 108.495 370.951 107.941C370.396 107.388 369.642 107.077 368.857 107.077L202.632 107.105Z" fill="#0E1D2B" style="fill:#0E1D2B;fill:color(display-p3 0.0549 0.1137 0.1686);fill-opacity:1;"/>
<path d="M366.815 118.966H202.996C202.868 118.952 202.75 118.89 202.664 118.794C202.578 118.698 202.531 118.573 202.531 118.445C202.531 118.316 202.578 118.192 202.664 118.096C202.75 117.999 202.868 117.938 202.996 117.923H366.815C366.889 117.914 366.964 117.921 367.035 117.944C367.105 117.966 367.171 118.003 367.226 118.052C367.282 118.102 367.326 118.162 367.357 118.23C367.387 118.297 367.403 118.371 367.403 118.445C367.403 118.519 367.387 118.592 367.357 118.66C367.326 118.727 367.282 118.788 367.226 118.837C367.171 118.886 367.105 118.923 367.035 118.946C366.964 118.968 366.889 118.975 366.815 118.966Z" fill="#0E1D2B" style="fill:#0E1D2B;fill:color(display-p3 0.0549 0.1137 0.1686);fill-opacity:1;"/>
<path d="M207.394 115.147C208.523 115.147 209.437 114.235 209.437 113.11C209.437 111.985 208.523 111.073 207.394 111.073C206.266 111.073 205.351 111.985 205.351 113.11C205.351 114.235 206.266 115.147 207.394 115.147Z" fill="white" style="fill:white;fill:white;fill-opacity:1;"/>
<path d="M207.394 115.431C206.933 115.431 206.483 115.295 206.1 115.04C205.718 114.785 205.419 114.423 205.243 113.998C205.067 113.574 205.021 113.108 205.111 112.657C205.2 112.207 205.422 111.793 205.748 111.469C206.073 111.144 206.488 110.923 206.94 110.833C207.391 110.744 207.859 110.79 208.285 110.966C208.71 111.141 209.074 111.439 209.329 111.82C209.585 112.202 209.722 112.651 209.722 113.11C209.722 113.726 209.476 114.316 209.04 114.751C208.603 115.187 208.011 115.431 207.394 115.431ZM207.394 111.357C207.044 111.357 206.703 111.46 206.412 111.654C206.122 111.848 205.895 112.123 205.762 112.445C205.629 112.767 205.594 113.122 205.663 113.463C205.731 113.805 205.9 114.119 206.148 114.365C206.396 114.61 206.711 114.778 207.054 114.845C207.397 114.912 207.752 114.876 208.074 114.742C208.397 114.607 208.672 114.381 208.865 114.09C209.058 113.8 209.161 113.459 209.159 113.11C209.157 112.644 208.971 112.198 208.64 111.87C208.309 111.541 207.861 111.357 207.394 111.357Z" fill="#0E1D2B" style="fill:#0E1D2B;fill:color(display-p3 0.0549 0.1137 0.1686);fill-opacity:1;"/>
<path d="M215.574 115.147C216.702 115.147 217.617 114.235 217.617 113.11C217.617 111.985 216.702 111.073 215.574 111.073C214.445 111.073 213.531 111.985 213.531 113.11C213.531 114.235 214.445 115.147 215.574 115.147Z" fill="white" style="fill:white;fill:white;fill-opacity:1;"/>
<path d="M215.573 115.431C215.113 115.431 214.663 115.295 214.28 115.04C213.897 114.785 213.599 114.423 213.423 113.998C213.246 113.574 213.2 113.108 213.29 112.657C213.38 112.207 213.602 111.793 213.927 111.469C214.253 111.144 214.668 110.923 215.119 110.833C215.571 110.744 216.039 110.79 216.464 110.966C216.89 111.141 217.253 111.439 217.509 111.82C217.765 112.202 217.901 112.651 217.901 113.11C217.9 113.725 217.654 114.314 217.217 114.749C216.781 115.184 216.19 115.429 215.573 115.431ZM215.573 111.357C215.224 111.355 214.881 111.458 214.59 111.65C214.298 111.843 214.071 112.118 213.937 112.44C213.802 112.762 213.766 113.117 213.834 113.459C213.902 113.801 214.071 114.115 214.318 114.362C214.565 114.609 214.881 114.776 215.224 114.844C215.567 114.912 215.922 114.876 216.245 114.742C216.568 114.608 216.844 114.381 217.037 114.091C217.231 113.8 217.333 113.459 217.332 113.11C217.33 112.646 217.144 112.201 216.815 111.872C216.485 111.544 216.039 111.359 215.573 111.357Z" fill="#0E1D2B" style="fill:#0E1D2B;fill:color(display-p3 0.0549 0.1137 0.1686);fill-opacity:1;"/>
<path d="M223.746 115.147C224.874 115.147 225.789 114.235 225.789 113.11C225.789 111.985 224.874 111.073 223.746 111.073C222.617 111.073 221.703 111.985 221.703 113.11C221.703 114.235 222.617 115.147 223.746 115.147Z" fill="white" style="fill:white;fill:white;fill-opacity:1;"/>
<path d="M223.745 115.431C223.285 115.431 222.835 115.295 222.452 115.04C222.069 114.785 221.771 114.423 221.595 113.998C221.418 113.574 221.372 113.108 221.462 112.657C221.552 112.207 221.774 111.793 222.099 111.469C222.425 111.144 222.84 110.923 223.291 110.833C223.743 110.744 224.211 110.79 224.636 110.966C225.062 111.141 225.425 111.439 225.681 111.82C225.937 112.202 226.073 112.651 226.073 113.11C226.071 113.725 225.826 114.314 225.389 114.749C224.953 115.184 224.362 115.429 223.745 115.431ZM223.745 111.357C223.396 111.355 223.053 111.458 222.762 111.65C222.47 111.843 222.243 112.118 222.108 112.44C221.974 112.762 221.938 113.117 222.006 113.459C222.074 113.801 222.242 114.115 222.49 114.362C222.737 114.609 223.052 114.776 223.396 114.844C223.739 114.912 224.094 114.876 224.417 114.742C224.74 114.608 225.016 114.381 225.209 114.091C225.403 113.8 225.505 113.459 225.504 113.11C225.502 112.646 225.316 112.201 224.987 111.872C224.657 111.544 224.211 111.359 223.745 111.357Z" fill="#0E1D2B" style="fill:#0E1D2B;fill:color(display-p3 0.0549 0.1137 0.1686);fill-opacity:1;"/>
<path d="M277.269 106.622L278.508 109.937C278.666 110.551 279.027 111.094 279.531 111.48C280.036 111.866 280.655 112.073 281.291 112.067C281.241 111.334 281.241 110.599 281.291 109.866C282.117 112.535 285.313 111.996 285.313 111.996C284.929 111.312 284.596 110.6 284.317 109.866C285.171 111.101 287.371 110.995 287.577 110.896C287.271 109.043 284.317 104.904 284.317 104.904C283.328 103.496 281.821 102.534 280.124 102.228C279.937 102.179 279.746 102.143 279.554 102.122C279.554 102.122 273.496 101.007 266.398 106.679C266.476 106.509 269.844 106.679 270.143 106.679L277.269 106.622Z" fill="white" style="fill:white;fill:white;fill-opacity:1;"/>
<path d="M284.672 112.486C283.58 112.521 282.517 112.129 281.711 111.392V112.01C281.714 112.069 281.706 112.129 281.687 112.185C281.667 112.241 281.637 112.292 281.597 112.336C281.515 112.422 281.402 112.473 281.284 112.478C280.547 112.504 279.824 112.276 279.237 111.833C278.65 111.389 278.233 110.757 278.059 110.044L276.941 107.062H270.128H269.466C268.754 107.062 266.974 106.991 266.583 107.062C266.507 107.104 266.42 107.122 266.334 107.115C266.248 107.107 266.166 107.074 266.098 107.02C266.02 106.958 265.965 106.872 265.941 106.776C265.918 106.679 265.928 106.577 265.97 106.487C265.987 106.433 266.015 106.384 266.054 106.342C266.092 106.3 266.139 106.267 266.191 106.246C272.563 101.206 278.258 101.433 279.582 101.724V101.674C279.789 101.698 279.993 101.736 280.194 101.788C281.089 101.944 281.945 102.276 282.711 102.763C283.477 103.25 284.139 103.884 284.658 104.627C284.772 104.776 287.662 108.886 287.99 110.775C288.004 110.869 287.988 110.966 287.945 111.051C287.901 111.136 287.833 111.206 287.748 111.25C286.936 111.422 286.093 111.363 285.313 111.08L285.676 111.79C285.706 111.853 285.721 111.922 285.721 111.992C285.721 112.062 285.706 112.131 285.676 112.194C285.642 112.256 285.595 112.309 285.539 112.351C285.482 112.392 285.417 112.421 285.349 112.436C285.125 112.467 284.899 112.484 284.672 112.486ZM281.291 109.398C281.326 109.391 281.362 109.391 281.398 109.398C281.472 109.415 281.541 109.452 281.597 109.504C281.654 109.557 281.695 109.623 281.718 109.696C281.925 110.274 282.314 110.77 282.827 111.109C283.341 111.448 283.951 111.613 284.566 111.577C283.79 110.058 283.854 109.88 283.854 109.753C283.868 109.665 283.909 109.584 283.969 109.52C284.03 109.455 284.109 109.41 284.195 109.39C284.281 109.372 284.371 109.379 284.453 109.411C284.535 109.442 284.606 109.497 284.658 109.568C285.178 110.278 286.352 110.469 286.993 110.469C286.473 108.886 284.651 106.139 283.925 105.117C283 103.813 281.604 102.917 280.031 102.618C279.817 102.576 279.646 102.533 279.475 102.512H279.44C279.297 102.512 274.108 101.639 267.8 106.111L269.487 106.146C269.693 106.163 269.9 106.163 270.107 106.146H277.226C277.317 106.147 277.406 106.176 277.481 106.228C277.555 106.279 277.613 106.353 277.646 106.437L278.884 109.76C278.98 110.213 279.214 110.625 279.555 110.941C279.895 111.256 280.325 111.458 280.785 111.52C280.707 109.717 280.785 109.625 280.935 109.49C280.985 109.451 281.042 109.423 281.103 109.408C281.164 109.392 281.228 109.388 281.291 109.398Z" fill="#0E1D2B" style="fill:#0E1D2B;fill:color(display-p3 0.0549 0.1137 0.1686);fill-opacity:1;"/>
<path d="M422.474 85.0991C419.249 78.9304 410.599 78.6677 405.288 82.8843C402.711 84.9288 401.551 88.2722 401.074 91.4666C400.846 93.0141 400.184 97.1811 399.429 101.887C400.786 101.489 402.194 101.291 403.608 101.298C405.921 101.273 408.201 101.834 410.236 102.931C408.328 95.4703 402.761 87.3565 406.05 87.2287C411.745 87.0087 415.796 93.6601 415.796 93.6601L415.412 108.454C416.35 110.425 416.851 112.575 416.878 114.757L423.527 108.12C423.527 108.12 426.688 95.0657 422.474 85.0991Z" fill="#0E1D2B" style="fill:#0E1D2B;fill:color(display-p3 0.0549 0.1137 0.1686);fill-opacity:1;"/>
<path d="M403.732 84.4741C400.17 89.2299 398.471 95.119 398.955 101.035C399.212 102.442 399.369 103.866 399.425 105.295C399.482 105.089 399.297 112.663 397.581 114.374C397.581 114.303 399.44 115.95 403.732 114.374C405.932 113.664 406.488 111.534 409.94 111.939C411.756 112.308 415.636 111.286 416.796 108.326C416.931 108.233 422.491 105.366 422.491 105.366L419.629 89.3722L410.645 86.7173L403.732 84.4741Z" fill="#0E1D2B" style="fill:#0E1D2B;fill:color(display-p3 0.0549 0.1137 0.1686);fill-opacity:1;"/>
<path d="M398.1 149.697C398.044 149.707 397.986 149.707 397.929 149.697L391.522 147.532C391.445 147.504 391.375 147.46 391.317 147.402C391.26 147.344 391.215 147.275 391.187 147.198C391.163 147.121 391.157 147.039 391.17 146.959C391.182 146.879 391.212 146.803 391.259 146.737L409.818 120.472C409.869 120.404 409.934 120.349 410.01 120.311C410.085 120.273 410.168 120.252 410.253 120.251C410.337 120.251 410.42 120.272 410.495 120.312C410.569 120.351 410.633 120.409 410.68 120.479L415.343 127.258C415.396 127.33 415.428 127.417 415.435 127.506L416.282 136.358C416.29 136.448 416.275 136.538 416.237 136.62C416.2 136.703 416.142 136.774 416.069 136.827L398.428 149.604C398.333 149.673 398.217 149.706 398.1 149.697ZM392.554 146.737L398.015 148.596L415.186 136.16L414.432 127.712L410.274 121.664L392.554 146.737Z" fill="#0E1D2B" style="fill:#0E1D2B;fill:color(display-p3 0.0549 0.1137 0.1686);fill-opacity:1;"/>
<path d="M414.21 108.227C405.845 114.232 412.352 165.676 412.352 165.676L445.812 159.188C445.812 159.188 443.221 106.991 414.21 108.227Z" fill="white" style="fill:white;fill:white;fill-opacity:1;"/>
<path d="M412.35 166.201C412.222 166.201 412.099 166.153 412.003 166.068C411.908 165.984 411.846 165.867 411.831 165.74C411.56 163.61 405.381 113.92 413.902 107.801C413.986 107.742 414.085 107.707 414.187 107.701C443.425 106.452 446.323 158.634 446.351 159.16C446.359 159.286 446.321 159.411 446.244 159.511C446.167 159.611 446.056 159.681 445.931 159.706L412.471 166.187L412.35 166.201ZM414.394 108.745C407.004 114.573 412.144 159.514 412.806 165.051L445.276 158.762C444.928 153.679 440.934 107.815 414.394 108.745Z" fill="#0E1D2B" style="fill:#0E1D2B;fill:color(display-p3 0.0549 0.1137 0.1686);fill-opacity:1;"/>
<path d="M475.26 219.079C475.26 219.079 478.186 222.231 480.023 229.401C480.422 230.984 479.888 232.687 482.501 232.687V223.977L481.24 216.737H482.493V212.825C482.493 212.825 476.086 211.739 475.253 214.018L475.26 219.079Z" fill="#0E1D2B" style="fill:#0E1D2B;fill:color(display-p3 0.0549 0.1137 0.1686);fill-opacity:1;"/>
<path d="M472.523 218.703L475.605 219.413C476.048 218.778 476.297 218.029 476.324 217.256C476.35 216.483 476.153 215.718 475.755 215.054L475.605 214.813L472.523 213.77V218.703Z" fill="white" style="fill:white;fill:white;fill-opacity:1;"/>
<path d="M475.585 219.682H475.521L472.439 218.973C472.376 218.958 472.32 218.923 472.28 218.873C472.24 218.822 472.218 218.76 472.218 218.696V213.762C472.219 213.717 472.23 213.674 472.251 213.634C472.272 213.595 472.302 213.561 472.339 213.535C472.376 213.509 472.418 213.491 472.462 213.484C472.507 213.476 472.552 213.479 472.595 213.492L475.678 214.529C475.742 214.548 475.795 214.591 475.828 214.649L475.977 214.898C476.401 215.607 476.612 216.424 476.584 217.249C476.557 218.075 476.291 218.875 475.82 219.555C475.795 219.594 475.76 219.626 475.719 219.648C475.678 219.67 475.632 219.682 475.585 219.682ZM472.788 218.476L475.457 219.086C475.815 218.499 476.004 217.825 476.004 217.138C476.004 216.45 475.815 215.776 475.457 215.189L475.365 215.04L472.752 214.16L472.788 218.476Z" fill="#0E1D2B" style="fill:#0E1D2B;fill:color(display-p3 0.0549 0.1137 0.1686);fill-opacity:1;"/>
<path d="M421.139 250.143C421.139 250.143 421.139 255.027 411.287 257.952C409.265 258.555 409.92 259.144 409.542 259.996H420.862L425.297 255.027L426.678 256.205L429.875 253.075C429.875 253.075 428.38 248.539 425.945 248.503L421.139 250.143Z" fill="#0E1D2B" style="fill:#0E1D2B;fill:color(display-p3 0.0549 0.1137 0.1686);fill-opacity:1;"/>
<path d="M419.304 245.912L421.141 250.171C421.964 250.402 422.837 250.391 423.654 250.139C424.471 249.887 425.198 249.405 425.747 248.752L425.946 248.517L424.458 244.194L419.304 245.912Z" fill="white" style="fill:white;fill:white;fill-opacity:1;"/>
<path d="M422.349 250.583C421.916 250.584 421.484 250.524 421.067 250.406C421.026 250.396 420.987 250.375 420.955 250.347C420.922 250.319 420.898 250.283 420.882 250.242L419.046 246.019C419.028 245.983 419.019 245.945 419.019 245.905C419.019 245.866 419.028 245.827 419.046 245.792C419.061 245.756 419.084 245.724 419.112 245.697C419.14 245.67 419.173 245.649 419.209 245.635L424.371 243.882C424.44 243.857 424.515 243.857 424.584 243.882C424.618 243.898 424.648 243.921 424.673 243.949C424.697 243.977 424.716 244.01 424.727 244.045L426.25 248.454C426.264 248.5 426.267 248.549 426.257 248.596C426.247 248.643 426.225 248.687 426.193 248.723L425.994 248.965C425.541 249.483 424.98 249.896 424.351 250.175C423.721 250.455 423.038 250.594 422.349 250.583ZM421.345 249.873C422.097 250.062 422.887 250.036 423.626 249.8C424.364 249.565 425.022 249.128 425.524 248.539L425.624 248.418L424.285 244.485L419.686 246.054L421.345 249.873Z" fill="#0E1D2B" style="fill:#0E1D2B;fill:color(display-p3 0.0549 0.1137 0.1686);fill-opacity:1;"/>
<path d="M472.526 220.535H472.441L429.875 214.728C426.417 214.262 423.218 212.649 420.792 210.148C418.367 207.647 416.857 204.404 416.506 200.942L415.139 187.81C415.128 187.694 415.15 187.578 415.203 187.475C415.256 187.372 415.338 187.286 415.438 187.228L444.833 170.191C444.925 170.137 445.031 170.108 445.139 170.108C445.246 170.108 445.352 170.137 445.445 170.191C445.537 170.246 445.613 170.324 445.666 170.417C445.718 170.511 445.745 170.616 445.744 170.723C445.744 170.858 445.288 184.133 440.241 195.569C439.907 196.316 439.746 197.129 439.769 197.948C439.792 198.766 440 199.569 440.376 200.296C440.744 201.017 441.269 201.647 441.914 202.138C442.558 202.63 443.305 202.971 444.099 203.136C462.239 206.919 472.733 213.074 472.839 213.138C472.928 213.192 473.002 213.268 473.053 213.359C473.104 213.45 473.131 213.552 473.131 213.656V219.917C473.13 220.003 473.112 220.088 473.076 220.166C473.04 220.244 472.989 220.314 472.925 220.371C472.815 220.47 472.674 220.528 472.526 220.535ZM416.385 188.065L417.709 200.843C418.033 204.034 419.427 207.024 421.664 209.329C423.9 211.634 426.851 213.121 430.039 213.549L471.921 219.228V214.011C470.113 213.003 460.096 207.714 443.85 204.321C442.881 204.122 441.968 203.709 441.18 203.112C440.391 202.515 439.747 201.749 439.294 200.871C438.836 199.983 438.584 199.003 438.555 198.004C438.527 197.005 438.723 196.013 439.13 195.1C443.245 185.758 444.249 175.167 444.47 171.781L416.385 188.065Z" fill="#0E1D2B" style="fill:#0E1D2B;fill:color(display-p3 0.0549 0.1137 0.1686);fill-opacity:1;"/>
<path d="M414.454 168.799C414.454 168.799 399.745 196.314 399.745 204.846C399.745 213.379 419.544 246.672 419.544 246.672H425.239C425.239 246.672 424.235 225.582 420.405 208.09C420.022 206.408 420.083 204.655 420.582 203.002C421.081 201.35 422.001 199.855 423.253 198.663C435.284 187.405 445.963 168.799 445.963 168.799H414.454Z" fill="white" style="fill:white;fill:white;fill-opacity:1;"/>
<path d="M425.211 247.275H419.515C419.411 247.277 419.307 247.251 419.216 247.2C419.125 247.148 419.049 247.074 418.996 246.984C418.184 245.614 399.105 213.45 399.105 204.846C399.105 196.243 413.286 169.644 413.891 168.515C413.943 168.419 414.02 168.338 414.114 168.282C414.208 168.226 414.316 168.196 414.425 168.196H445.97C446.076 168.196 446.18 168.223 446.272 168.276C446.364 168.328 446.44 168.404 446.494 168.495C446.547 168.587 446.575 168.69 446.576 168.796C446.577 168.902 446.549 169.006 446.497 169.097C446.39 169.282 435.633 187.916 423.673 199.103C422.496 200.223 421.628 201.627 421.154 203.179C420.68 204.731 420.616 206.379 420.968 207.963C424.762 225.298 425.809 246.43 425.816 246.643C425.82 246.725 425.808 246.807 425.78 246.884C425.752 246.961 425.708 247.031 425.652 247.09C425.595 247.149 425.526 247.195 425.45 247.227C425.374 247.259 425.293 247.275 425.211 247.275ZM419.893 246.068H424.57C424.364 242.427 423.189 223.778 419.779 208.218C419.384 206.43 419.459 204.571 419.995 202.82C420.531 201.07 421.511 199.486 422.84 198.223C433.17 188.562 442.61 173.257 444.909 169.403H414.817C413.187 172.498 400.351 197.052 400.351 204.846C400.351 212.641 417.935 242.774 419.893 246.068Z" fill="#0E1D2B" style="fill:#0E1D2B;fill:color(display-p3 0.0549 0.1137 0.1686);fill-opacity:1;"/>
<path d="M412.011 104.727V112.585C414.208 112.512 416.321 111.73 418.034 110.356C418.247 110.356 420.711 104.727 420.711 104.727L414.396 101.61L412.011 104.727Z" fill="white" style="fill:white;fill:white;fill-opacity:1;"/>
<path d="M412.011 113.11C411.873 113.108 411.741 113.052 411.643 112.954C411.546 112.855 411.492 112.723 411.492 112.585V104.727C411.491 104.613 411.529 104.503 411.598 104.414L413.976 101.291C414.049 101.193 414.153 101.124 414.272 101.096C414.39 101.067 414.515 101.081 414.624 101.135L420.946 104.258C421.009 104.288 421.067 104.33 421.114 104.382C421.161 104.434 421.197 104.495 421.22 104.561C421.244 104.627 421.253 104.697 421.249 104.767C421.245 104.837 421.226 104.905 421.195 104.968C419.316 109.227 418.718 110.441 418.347 110.782C416.546 112.226 414.321 113.043 412.011 113.11ZM412.538 104.904V112.003C414.422 111.846 416.215 111.129 417.685 109.944C417.956 109.54 419.031 107.211 420.027 104.975L414.546 102.27L412.538 104.904Z" fill="#0E1D2B" style="fill:#0E1D2B;fill:color(display-p3 0.0549 0.1137 0.1686);fill-opacity:1;"/>
<path d="M407.597 85.3403L414.717 88.5489L416.646 97.4294C416.902 98.5995 416.878 99.8133 416.576 100.972C416.274 102.132 415.703 103.204 414.909 104.102C413.13 105.697 410.923 106.741 408.559 107.105C407.649 107.321 406.694 107.244 405.832 106.885C404.408 105.281 403.625 102.42 403.233 99.4241C402.707 99.2963 401.859 99.0834 401.895 98.9769C402.059 96.449 402.395 93.9351 402.899 91.4523C402.899 91.4523 403.774 86.9588 407.597 85.3403Z" fill="white" style="fill:white;fill:white;fill-opacity:1;"/>
<path d="M407.3 107.73C406.684 107.76 406.071 107.623 405.527 107.332L405.414 107.24C404.118 105.82 403.221 103.321 402.737 99.8429C401.697 99.5873 401.534 99.4596 401.413 99.2537C401.363 99.1599 401.341 99.0542 401.349 98.9485C401.516 96.3947 401.854 93.8548 402.359 91.3458C402.402 91.147 403.406 86.5471 407.393 84.8576C407.46 84.8279 407.533 84.8125 407.606 84.8125C407.68 84.8125 407.753 84.8279 407.82 84.8576L414.903 88.0662C414.979 88.0984 415.045 88.148 415.097 88.211C415.149 88.274 415.185 88.3485 415.202 88.4282L417.132 97.3158C417.4 98.5615 417.372 99.8526 417.049 101.085C416.726 102.318 416.118 103.458 415.274 104.414C413.415 106.106 411.097 107.213 408.61 107.595C408.177 107.671 407.739 107.716 407.3 107.73ZM406.14 106.48C406.885 106.747 407.693 106.787 408.461 106.594C410.725 106.249 412.837 105.247 414.533 103.712C415.258 102.877 415.777 101.886 416.05 100.816C416.323 99.7467 416.343 98.6283 416.106 97.55L414.234 88.9251L407.599 85.894C404.246 87.4557 403.399 91.4949 403.385 91.5375C402.913 93.881 402.589 96.252 402.416 98.6361C402.58 98.6858 402.865 98.7639 403.328 98.8775C403.432 98.9019 403.526 98.9569 403.598 99.0354C403.671 99.1138 403.718 99.2122 403.733 99.3176C404.182 102.746 404.979 105.139 406.14 106.48Z" fill="#0E1D2B" style="fill:#0E1D2B;fill:color(display-p3 0.0549 0.1137 0.1686);fill-opacity:1;"/>
<path d="M404.894 86.6464C404.402 90.8488 415.822 93.6244 415.822 93.6244L417.608 88.1797L411.664 83.0544L405.684 85.1131C405.298 85.5516 405.027 86.0783 404.894 86.6464Z" fill="#0E1D2B" style="fill:#0E1D2B;fill:color(display-p3 0.0549 0.1137 0.1686);fill-opacity:1;"/>
<path d="M417.487 93.6313C417.046 93.4138 416.541 93.366 416.067 93.497C415.592 93.6279 415.183 93.9285 414.917 94.3412C414.206 95.2285 414.262 96.3501 414.996 96.8399C415.437 97.0574 415.943 97.1052 416.417 96.9743C416.891 96.8433 417.3 96.5428 417.566 96.13C418.256 95.2498 418.221 94.1282 417.487 93.6313Z" fill="white" style="fill:white;fill:white;fill-opacity:1;"/>
<path d="M426.132 111.265C427.143 107.9 426.588 106.367 426.132 105.415C424.139 103.052 425.264 98.3168 425.228 97.0816C425.05 86.2774 421.042 83.0759 421.042 83.0759L421.982 94.4693L416.642 97.4294C417.354 100.397 413.19 112.585 415.062 112.585C415.062 112.585 420.757 108.205 426.154 111.265" fill="#0E1D2B" style="fill:#0E1D2B;fill:color(display-p3 0.0549 0.1137 0.1686);fill-opacity:1;"/>
<path d="M352.608 132.298L345.699 156.028L457.508 188.397L464.418 164.667L352.608 132.298Z" fill="white" style="fill:white;fill:white;fill-opacity:1;"/>
<path d="M457.496 188.91H457.346L345.533 156.54C345.467 156.521 345.405 156.489 345.351 156.447C345.298 156.404 345.253 156.351 345.22 156.291C345.187 156.231 345.166 156.165 345.159 156.097C345.151 156.029 345.158 155.96 345.177 155.894L352.09 132.156C352.109 132.09 352.14 132.028 352.183 131.975C352.226 131.921 352.279 131.877 352.339 131.844C352.462 131.78 352.604 131.764 352.738 131.801L464.551 164.143C464.617 164.162 464.679 164.194 464.733 164.238C464.787 164.281 464.832 164.335 464.865 164.395C464.898 164.456 464.919 164.523 464.926 164.591C464.933 164.66 464.927 164.729 464.907 164.796L458.001 188.526C457.982 188.593 457.95 188.655 457.905 188.709C457.861 188.763 457.807 188.807 457.745 188.839C457.67 188.884 457.584 188.908 457.496 188.91ZM346.33 155.66L457.14 187.731L463.754 165.016L352.923 132.93L346.33 155.66Z" fill="#0E1D2B" style="fill:#0E1D2B;fill:color(display-p3 0.0549 0.1137 0.1686);fill-opacity:1;"/>
<path d="M454.577 186.163H454.428C454.362 186.144 454.3 186.112 454.246 186.069C454.192 186.027 454.148 185.974 454.114 185.914C454.081 185.854 454.06 185.788 454.053 185.719C454.046 185.651 454.052 185.582 454.072 185.517L459.981 165.214C460.02 165.081 460.111 164.968 460.234 164.902C460.357 164.835 460.501 164.82 460.636 164.859C460.77 164.899 460.882 164.99 460.949 165.113C461.016 165.235 461.031 165.379 460.991 165.513L455.083 185.808C455.046 185.912 454.977 186.002 454.887 186.065C454.796 186.129 454.688 186.163 454.577 186.163Z" fill="#0E1D2B" style="fill:#0E1D2B;fill:color(display-p3 0.0549 0.1137 0.1686);fill-opacity:1;"/>
<path d="M445.414 176.274C443.926 173.552 442.219 170.955 440.31 168.508C440.943 166.606 447.279 147.212 445.934 140.334C444.51 133.072 437.782 125.462 437.782 125.462L426.128 132.646L434.529 142.25L435.725 169.552L435.768 174.741C435.766 175.606 436.013 176.454 436.48 177.183C436.815 177.676 437.179 178.15 437.569 178.603L437.683 178.73L437.818 178.879C439.259 180.415 441.005 181.636 442.944 182.464C443.086 182.251 442.424 180.782 441.733 179.625C441.733 179.625 444.41 181.683 445.635 181.648C445.827 181.364 444.446 178.808 443.62 177.793L443.584 177.587C444.631 178.461 445.798 179.178 447.051 179.717C447.244 179.469 446.183 177.254 445.414 176.274Z" fill="white" style="fill:white;fill:white;fill-opacity:1;"/>
<path d="M442.974 183.004C442.903 183.004 442.832 182.99 442.767 182.961C440.756 182.105 438.947 180.838 437.456 179.242L437.2 178.95C436.794 178.48 436.418 177.985 436.075 177.467C435.538 176.655 435.249 175.706 435.242 174.734V169.552L434.046 142.449L425.767 132.987C425.718 132.928 425.681 132.86 425.661 132.787C425.64 132.713 425.635 132.636 425.646 132.561C425.657 132.486 425.685 132.416 425.727 132.353C425.769 132.291 425.824 132.238 425.888 132.199L437.549 125.008C437.654 124.94 437.779 124.913 437.902 124.932C438.026 124.95 438.138 125.012 438.218 125.107C438.496 125.419 445.06 132.916 446.491 140.227C447.808 147.006 441.97 165.25 440.938 168.402C442.796 170.802 444.462 173.344 445.921 176.005C446.206 176.416 448.057 179.249 447.573 180.001C447.506 180.103 447.405 180.179 447.288 180.215C447.171 180.252 447.045 180.246 446.932 180.2C446.398 179.974 445.88 179.713 445.38 179.419C445.95 180.42 446.441 181.549 446.163 181.939C446.116 182.009 446.052 182.067 445.978 182.108C445.904 182.148 445.821 182.171 445.736 182.173H445.693C444.814 182.053 443.976 181.73 443.244 181.229C443.522 181.896 443.657 182.479 443.465 182.755C443.415 182.839 443.343 182.907 443.256 182.951C443.169 182.995 443.071 183.013 442.974 183.004ZM426.963 132.745L434.958 141.888C435.039 141.975 435.085 142.089 435.086 142.208L436.289 169.509L436.332 174.713C436.335 175.471 436.563 176.212 436.987 176.842C437.305 177.324 437.654 177.784 438.033 178.219L438.268 178.482C439.394 179.69 440.718 180.698 442.184 181.463C441.939 180.91 441.661 180.372 441.351 179.852C441.262 179.749 441.216 179.615 441.224 179.479C441.232 179.342 441.293 179.215 441.394 179.123C441.495 179.03 441.628 178.981 441.764 178.984C441.901 178.988 442.031 179.045 442.127 179.142C443.008 179.824 443.963 180.405 444.974 180.874C444.513 179.873 443.95 178.921 443.294 178.035C443.239 177.967 443.202 177.886 443.187 177.8L443.152 177.595C443.13 177.489 443.143 177.379 443.187 177.281C443.232 177.183 443.307 177.101 443.401 177.048C443.495 176.993 443.603 176.968 443.711 176.977C443.82 176.986 443.923 177.028 444.006 177.098C444.708 177.689 445.469 178.208 446.277 178.645C445.937 177.897 445.524 177.184 445.045 176.516L445.003 176.445C443.532 173.748 441.842 171.177 439.948 168.757C439.896 168.688 439.861 168.607 439.846 168.522C439.832 168.437 439.837 168.35 439.863 168.267C442.447 160.458 446.54 145.835 445.473 140.348C444.269 134.165 439.016 127.57 437.727 126.065L426.963 132.745Z" fill="#0E1D2B" style="fill:#0E1D2B;fill:color(display-p3 0.0549 0.1137 0.1686);fill-opacity:1;"/>
<path d="M404.806 102.696C404.187 102.698 403.581 102.513 403.069 102.164C402.957 102.088 402.88 101.971 402.853 101.838C402.827 101.705 402.853 101.568 402.927 101.454C403.005 101.344 403.122 101.268 403.255 101.241C403.387 101.215 403.525 101.24 403.639 101.312C404.092 101.616 404.647 101.731 405.184 101.632C405.451 101.581 405.705 101.478 405.931 101.328C406.157 101.178 406.351 100.984 406.501 100.758C406.537 100.696 406.586 100.641 406.644 100.598C406.702 100.555 406.769 100.524 406.84 100.508C406.91 100.491 406.984 100.49 407.055 100.503C407.126 100.516 407.194 100.544 407.254 100.585C407.314 100.626 407.365 100.679 407.404 100.74C407.443 100.801 407.468 100.87 407.479 100.941C407.49 101.013 407.486 101.086 407.467 101.156C407.448 101.226 407.415 101.291 407.369 101.348C407.142 101.687 406.85 101.977 406.509 102.201C406.168 102.425 405.785 102.579 405.383 102.654C405.193 102.687 405 102.702 404.806 102.696Z" fill="#0E1D2B" style="fill:#0E1D2B;fill:color(display-p3 0.0549 0.1137 0.1686);fill-opacity:1;"/>
<path d="M418.066 80.9746C418.066 80.9746 425.897 82.3943 426.701 96.2722C426.9 96.2722 425.861 104.379 429.599 106.658C429.599 106.658 432.603 108.077 430.481 114.722C430.567 114.807 427.591 111.3 424.651 110.462C424.651 110.626 417.581 88.2082 417.581 88.2082L418.066 80.9746Z" fill="#0E1D2B" style="fill:#0E1D2B;fill:color(display-p3 0.0549 0.1137 0.1686);fill-opacity:1;"/>
<path d="M33.4863 89.0176C33.4863 89.0176 34.9671 88.5207 34.718 88.3078C33.6003 85.2908 30.062 82.1958 28.8162 81.2091C27.1432 78.8452 25.7977 77.248 25.7977 77.248L13.2181 85.4044L17.0981 95.3426C17.155 95.4774 17.2333 95.6123 17.2903 95.7472C17.5679 95.7472 17.8456 95.7117 18.1232 95.7117H18.3938C21.5547 95.7117 24.2884 97.5432 26.0611 100.063L23.0283 100.567L21.9249 107.417H31.6567L32.3686 99.0268C33.6501 98.4163 34.7678 97.6922 35.1665 96.8972C35.5865 94.6469 34.7749 91.8216 33.4863 89.0176Z" fill="white" style="fill:white;fill:white;fill-opacity:1;"/>
<path d="M31.6571 107.9H21.9252C21.8492 107.9 21.7742 107.884 21.7053 107.852C21.6364 107.82 21.5754 107.773 21.5265 107.715C21.4774 107.658 21.4413 107.591 21.4204 107.519C21.3995 107.447 21.3944 107.371 21.4055 107.297L22.5089 100.446C22.5258 100.337 22.577 100.237 22.6551 100.159C22.7332 100.081 22.8341 100.03 22.9432 100.013L25.1217 99.6513C24.3292 98.6124 23.3138 97.7635 22.1497 97.1665C20.9857 96.5696 19.7025 96.2398 18.3941 96.2013H18.1236C17.8601 96.2013 17.5896 96.2013 17.3262 96.2013C17.2189 96.2149 17.11 96.1922 17.0171 96.1369C16.9242 96.0815 16.8526 95.9967 16.8136 95.8961L16.7496 95.7612C16.6986 95.667 16.6535 95.5698 16.6143 95.4701L12.7272 85.532C12.6832 85.4209 12.6789 85.2981 12.7153 85.1842C12.7516 85.0704 12.8262 84.9726 12.9266 84.9073L25.5132 76.7864C25.6225 76.71 25.7567 76.6778 25.8888 76.6962C26.021 76.7147 26.1412 76.7824 26.2251 76.8858C26.2251 76.8858 27.5849 78.5043 29.2365 80.8256C30.7031 82.0395 34.0989 85.0848 35.238 88.123C35.2888 88.2315 35.3062 88.3525 35.2878 88.4708C35.2878 88.6554 35.2095 88.9181 34.2199 89.3156C35.5797 92.4177 36.0709 94.9945 35.6936 96.9893C35.6857 97.0392 35.6688 97.0873 35.6438 97.1312C35.2522 97.8908 34.3481 98.6219 32.8744 99.346L32.1981 107.446C32.1821 107.575 32.1174 107.694 32.0171 107.779C31.9167 107.863 31.7881 107.906 31.6571 107.9ZM22.5445 106.856H31.1729L31.8493 98.9627C31.8564 98.8725 31.8871 98.7857 31.9383 98.7109C31.9895 98.6362 32.0594 98.5762 32.1412 98.5368C33.7999 97.7559 34.4335 97.117 34.6684 96.7195C34.9959 94.8384 34.4478 92.3254 33.0239 89.2375C32.9803 89.1607 32.9573 89.0738 32.9573 88.9855C32.9573 88.8972 32.9803 88.8103 33.0239 88.7335C33.0989 88.6254 33.2099 88.5474 33.3372 88.5134C33.5966 88.4232 33.8509 88.3189 34.0989 88.2011C32.8887 85.3616 29.5071 82.4441 28.4677 81.5922C28.4677 81.5922 28.4036 81.5283 28.3751 81.4858C27.1862 79.8176 26.1611 78.5185 25.677 77.9364L13.8592 85.6172L17.611 95.1223V95.172H18.1236H18.3941C21.4909 95.172 24.4454 96.8402 26.4957 99.7506C26.5459 99.8237 26.5768 99.9081 26.5855 99.9963C26.5942 100.084 26.5805 100.173 26.5455 100.255C26.512 100.335 26.4585 100.406 26.39 100.461C26.3215 100.516 26.2403 100.552 26.154 100.567L23.4843 101.007L22.5445 106.856Z" fill="#0E1D2B" style="fill:#0E1D2B;fill:color(display-p3 0.0549 0.1137 0.1686);fill-opacity:1;"/>
<path d="M28.5484 69.4746C27.5671 68.9413 26.4695 68.6561 25.3519 68.6441C27.1246 67.6716 27.4877 67.2243 27.388 67.0043C27.21 66.4577 24.3339 66.5784 21.9703 67.8064C21.1502 68.2336 20.401 68.7843 19.7492 69.4391C19.1809 69.2746 18.5883 69.2098 17.9978 69.2475C16.4791 69.4374 15.0844 70.1808 14.0823 71.3345C12.8842 72.5431 12.0569 74.0674 11.6974 75.7285C11.9822 73.0807 11.8398 72.3638 11.612 72.307C11.0353 72.165 8.76431 75.9983 9.21994 80.2149C9.41847 81.9977 10.0542 83.7043 11.0709 85.184C9.36944 83.6507 8.87822 83.459 8.75007 83.5726C8.41547 83.8494 9.60437 86.6605 12.1245 88.2719C12.3687 90.3534 12.9081 92.3897 13.7264 94.32C15.257 97.919 19.1654 99.9208 23.0382 100.517H26.5978L23.6433 93.9792L25.5655 92.7796C26.2542 92.347 26.7764 91.6954 27.0477 90.9303C27.319 90.1651 27.3235 89.331 27.0605 88.563L25.5299 84.0766C28.762 82.9124 30.9191 80.7757 31.2252 78.4615C31.3287 77.465 31.1512 76.4595 30.7126 75.5582C30.637 75.1945 30.476 74.854 30.2428 74.5644C31.453 75.2742 31.8944 75.2742 32.0653 75.0897C32.6775 74.536 31.332 71.0221 28.5484 69.4746Z" fill="#0E1D2B" style="fill:#0E1D2B;fill:color(display-p3 0.0549 0.1137 0.1686);fill-opacity:1;"/>
<path d="M22.0169 90.9695C21.6609 91.9988 22.3728 93.3618 23.6044 94.0149C24.8361 94.6679 26.1175 94.3627 26.4521 93.305C26.7867 92.2473 26.089 90.9127 24.8574 90.2597C23.6258 89.6066 22.3657 89.9402 22.0169 90.9695Z" fill="white" style="fill:white;fill:white;fill-opacity:1;"/>
<path d="M295.993 194.908L213.226 194.717V188.711H295.993V194.908Z" fill="#A9B8DE" style="fill:#A9B8DE;fill:color(display-p3 0.6627 0.7216 0.8706);fill-opacity:1;"/>
<path d="M287.618 181.215L258.956 181.016V175.011H287.618V181.215Z" fill="#5BBE82" style="fill:#5BBE82;fill:color(display-p3 0.3569 0.7451 0.5098);fill-opacity:1;"/>
<path d="M322.959 140.135L242.484 139.936V133.931H322.959V140.135Z" fill="#5BBE81" style="fill:#5BBE81;fill:color(display-p3 0.3569 0.7451 0.5059);fill-opacity:1;"/>
<path d="M280.464 153.828L239.949 153.629V147.624H280.464V153.828Z" fill="#ACCEED" style="fill:#ACCEED;fill:color(display-p3 0.6745 0.8078 0.9294);fill-opacity:1;"/>
<path d="M349.932 192.21H215.26C215.202 192.218 215.144 192.213 215.089 192.197C215.033 192.18 214.982 192.152 214.939 192.114C214.895 192.076 214.86 192.029 214.836 191.977C214.813 191.924 214.8 191.867 214.8 191.809C214.8 191.752 214.813 191.695 214.836 191.642C214.86 191.59 214.895 191.543 214.939 191.505C214.982 191.467 215.033 191.439 215.089 191.422C215.144 191.405 215.202 191.401 215.26 191.408H349.932C349.99 191.401 350.048 191.405 350.103 191.422C350.159 191.439 350.21 191.467 350.253 191.505C350.297 191.543 350.332 191.59 350.356 191.642C350.38 191.695 350.392 191.752 350.392 191.809C350.392 191.867 350.38 191.924 350.356 191.977C350.332 192.029 350.297 192.076 350.253 192.114C350.21 192.152 350.159 192.18 350.103 192.197C350.048 192.213 349.99 192.218 349.932 192.21Z" fill="#0E1D2B" style="fill:#0E1D2B;fill:color(display-p3 0.0549 0.1137 0.1686);fill-opacity:1;"/>
<path d="M351.044 137.437H215.261C215.153 137.437 215.05 137.395 214.974 137.319C214.897 137.243 214.855 137.14 214.855 137.033C214.855 136.925 214.897 136.822 214.974 136.746C215.05 136.671 215.153 136.628 215.261 136.628H351.044C351.152 136.628 351.255 136.671 351.331 136.746C351.407 136.822 351.45 136.925 351.45 137.033C351.45 137.14 351.407 137.243 351.331 137.319C351.255 137.395 351.152 137.437 351.044 137.437Z" fill="#0E1D2B" style="fill:#0E1D2B;fill:color(display-p3 0.0549 0.1137 0.1686);fill-opacity:1;"/>
<path d="M340.144 205.904H215.26C215.202 205.911 215.144 205.907 215.089 205.89C215.033 205.873 214.982 205.845 214.939 205.807C214.895 205.769 214.86 205.722 214.836 205.67C214.813 205.617 214.8 205.56 214.8 205.503C214.8 205.445 214.813 205.388 214.836 205.336C214.86 205.283 214.895 205.236 214.939 205.198C214.982 205.16 215.033 205.132 215.089 205.115C215.144 205.099 215.202 205.094 215.26 205.102H340.144C340.201 205.094 340.259 205.099 340.315 205.115C340.37 205.132 340.421 205.16 340.465 205.198C340.508 205.236 340.543 205.283 340.567 205.336C340.591 205.388 340.603 205.445 340.603 205.503C340.603 205.56 340.591 205.617 340.567 205.67C340.543 205.722 340.508 205.769 340.465 205.807C340.421 205.845 340.37 205.873 340.315 205.89C340.259 205.907 340.201 205.911 340.144 205.904Z" fill="#0E1D2B" style="fill:#0E1D2B;fill:color(display-p3 0.0549 0.1137 0.1686);fill-opacity:1;"/>
<path d="M341.47 151.131H214.436C214.329 151.131 214.226 151.088 214.15 151.012C214.073 150.936 214.031 150.833 214.031 150.726C214.031 150.619 214.073 150.516 214.15 150.44C214.226 150.364 214.329 150.321 214.436 150.321H341.47C341.578 150.321 341.681 150.364 341.757 150.44C341.833 150.516 341.876 150.619 341.876 150.726C341.876 150.833 341.833 150.936 341.757 151.012C341.681 151.088 341.578 151.131 341.47 151.131Z" fill="#0E1D2B" style="fill:#0E1D2B;fill:color(display-p3 0.0549 0.1137 0.1686);fill-opacity:1;"/>
<path d="M353.73 164.824H214.436C214.383 164.824 214.33 164.814 214.281 164.793C214.232 164.773 214.187 164.743 214.15 164.706C214.112 164.668 214.082 164.623 214.062 164.574C214.041 164.525 214.031 164.473 214.031 164.42C214.031 164.366 214.041 164.314 214.062 164.265C214.082 164.216 214.112 164.171 214.15 164.133C214.187 164.096 214.232 164.066 214.281 164.046C214.33 164.025 214.383 164.015 214.436 164.015H353.73C353.837 164.015 353.94 164.058 354.017 164.133C354.093 164.209 354.135 164.312 354.135 164.42C354.135 164.527 354.093 164.63 354.017 164.706C353.94 164.782 353.837 164.824 353.73 164.824Z" fill="#0E1D2B" style="fill:#0E1D2B;fill:color(display-p3 0.0549 0.1137 0.1686);fill-opacity:1;"/>
<path d="M320.746 178.517H214.435C214.378 178.525 214.32 178.52 214.264 178.504C214.209 178.487 214.158 178.459 214.114 178.421C214.071 178.383 214.036 178.336 214.012 178.283C213.988 178.231 213.976 178.174 213.976 178.116C213.976 178.059 213.988 178.002 214.012 177.949C214.036 177.897 214.071 177.85 214.114 177.812C214.158 177.774 214.209 177.746 214.264 177.729C214.32 177.712 214.378 177.708 214.435 177.715H320.746C320.803 177.708 320.861 177.712 320.917 177.729C320.972 177.746 321.023 177.774 321.066 177.812C321.11 177.85 321.145 177.897 321.169 177.949C321.193 178.002 321.205 178.059 321.205 178.116C321.205 178.174 321.193 178.231 321.169 178.283C321.145 178.336 321.11 178.383 321.066 178.421C321.023 178.459 320.972 178.487 320.917 178.504C320.861 178.52 320.803 178.525 320.746 178.517Z" fill="#0E1D2B" style="fill:#0E1D2B;fill:color(display-p3 0.0549 0.1137 0.1686);fill-opacity:1;"/>
<path d="M322.059 140.213L320.706 132.88L328.416 135.102L326.558 141.505L322.059 140.213Z" fill="#5BBE81" style="fill:#5BBE81;fill:color(display-p3 0.3569 0.7451 0.5059);fill-opacity:1;"/>
<path d="M326.919 142.158L321.601 140.625L320.035 132.142L329.062 134.74L326.919 142.158ZM322.519 139.801L326.2 140.859L327.766 135.457L321.359 133.618L322.519 139.801Z" fill="#030303" style="fill:#030303;fill:color(display-p3 0.0118 0.0118 0.0118);fill-opacity:1;"/>
<path d="M350.869 138.133L345.687 156.036L330.402 144.693L332.659 136.919L333 135.727L333.563 133.803L352.549 132.334L351.382 136.366L350.869 138.133Z" fill="white" style="fill:white;fill:white;fill-opacity:1;"/>
<path d="M345.684 156.561C345.572 156.562 345.462 156.528 345.371 156.462L330.086 145.104C330.001 145.04 329.937 144.951 329.902 144.85C329.868 144.748 329.865 144.639 329.894 144.536L333.055 133.647C333.084 133.544 333.143 133.451 333.226 133.383C333.309 133.314 333.411 133.273 333.518 133.264L352.512 131.794C352.596 131.791 352.68 131.806 352.757 131.84C352.835 131.873 352.904 131.923 352.96 131.986C353.013 132.052 353.049 132.13 353.065 132.212C353.081 132.295 353.077 132.381 353.053 132.461L346.19 156.171C346.165 156.252 346.121 156.326 346.062 156.387C346.002 156.447 345.929 156.493 345.848 156.519C345.797 156.544 345.741 156.558 345.684 156.561ZM331.005 144.494L345.385 155.142L350.369 137.956L351.842 132.88L333.966 134.3L331.005 144.494Z" fill="#0E1D2B" style="fill:#0E1D2B;fill:color(display-p3 0.0549 0.1137 0.1686);fill-opacity:1;"/>
<path d="M329.088 132.651L326.105 143.465L330.416 144.647L333.399 133.833L329.088 132.651Z" fill="white" style="fill:white;fill:white;fill-opacity:1;"/>
<path d="M330.414 145.182C330.367 145.189 330.319 145.189 330.272 145.182L325.965 143.997C325.831 143.96 325.717 143.873 325.648 143.753C325.579 143.633 325.56 143.491 325.595 143.358L328.585 132.539C328.621 132.406 328.709 132.293 328.829 132.224C328.949 132.155 329.091 132.135 329.225 132.17L333.532 133.356C333.666 133.393 333.78 133.479 333.853 133.597C333.921 133.718 333.939 133.861 333.903 133.995L330.92 144.813C330.882 144.948 330.792 145.063 330.67 145.132C330.59 145.169 330.502 145.186 330.414 145.182ZM326.748 143.109L330.044 144.011L332.749 134.208L329.432 133.299L326.748 143.109Z" fill="#0E1D2B" style="fill:#0E1D2B;fill:color(display-p3 0.0549 0.1137 0.1686);fill-opacity:1;"/>
</svg>
