<svg width="48" height="49" viewBox="0 0 48 49" fill="none" xmlns="http://www.w3.org/2000/svg">
<path d="M0 35.6288V12.5361C0 5.60824 5.60825 0 12.5361 0H35.4639C42.3918 0 48 5.60824 48 12.5361V35.4639C48 42.3917 42.3918 48 35.4639 48H12.5361C5.7732 48.1649 0 42.5567 0 35.6288Z" fill="#0072B1" style="fill:#0072B1;fill:color(display-p3 0.0000 0.4471 0.6941);fill-opacity:1;"/>
<path d="M14.0194 19.6285H18.8029V34.6388H14.1844V19.6285H14.0194ZM16.3287 12.2058C17.8132 12.2058 18.9679 13.3604 18.9679 14.845C18.9679 16.3295 17.8132 17.4842 16.3287 17.4842C14.8442 17.4842 13.6895 16.3295 13.6895 14.845C13.6895 13.3604 14.8442 12.2058 16.3287 12.2058Z" fill="white" style="fill:white;fill:white;fill-opacity:1;"/>
<path d="M21.5924 19.6296H26.046V21.609C26.7058 20.4544 28.1903 19.1348 30.4996 19.1348C35.2831 19.1348 36.1079 22.2688 36.1079 26.2276V34.475H31.4893V27.2172C31.4893 25.4028 31.4893 23.2585 29.0151 23.2585C26.5409 23.2585 26.211 25.0729 26.211 27.0523V34.475H21.5924V19.6296Z" fill="white" style="fill:white;fill:white;fill-opacity:1;"/>
</svg>
