<svg width="52" height="40" viewBox="0 0 52 40" fill="none" xmlns="http://www.w3.org/2000/svg">
<path d="M4.6077 36.5519C1.60964 33.3523 0 29.7638 0 23.9467C0 13.7105 7.15167 4.53598 17.5516 0L20.1511 4.03002C10.4436 9.30604 8.54591 16.1526 7.78914 20.4693C9.35217 19.6563 11.3984 19.3726 13.4038 19.5598C18.6549 20.0482 22.794 24.3796 22.794 29.7638C22.794 32.4787 21.7205 35.0822 19.8101 37.002C17.8996 38.9217 15.3082 40 12.6065 40C9.48331 40 6.49677 38.5669 4.6077 36.5519ZM33.7152 36.5519C30.717 33.3523 29.1074 29.7638 29.1074 23.9467C29.1074 13.7105 36.2591 4.53598 46.6591 0L49.2583 4.03002C39.5511 9.30604 37.6534 16.1526 36.8966 20.4693C38.4596 19.6563 40.5059 19.3726 42.5113 19.5598C47.7621 20.0482 51.9012 24.3796 51.9012 29.7638C51.9012 32.4787 50.828 35.0822 48.9176 37.002C47.0068 38.9217 44.4157 40 41.7137 40C38.5905 40 35.6042 38.5669 33.7152 36.5519Z" fill="#98A9EF" style="fill:#98A9EF;fill:color(display-p3 0.5975 0.6638 0.9358);fill-opacity:1;"/>
</svg>
