<svg width="271" height="260" viewBox="0 0 271 260" fill="none" xmlns="http://www.w3.org/2000/svg">
<g clip-path="url(#clip0_1_108)">
<path d="M159.976 24.1907C102.226 12.4734 45.9072 49.7659 34.1857 107.485L138.751 128.699L159.976 24.1907Z" fill="#ED8658" style="fill:#ED8658;fill:color(display-p3 0.9294 0.5255 0.3451);fill-opacity:1;"/>
<path d="M138.874 128.092L153.98 53.7163C112.881 45.3798 72.8018 71.9185 64.4587 112.994L138.874 128.092Z" fill="#FFA785" style="fill:#FFA785;fill:color(display-p3 1.0000 0.6549 0.5216);fill-opacity:1;"/>
<path d="M117.586 232.906C175.336 244.621 231.655 207.329 243.378 149.61L138.811 128.4L117.586 232.906Z" fill="#35D888" style="fill:#35D888;fill:color(display-p3 0.2078 0.8471 0.5333);fill-opacity:1;"/>
<path d="M138.811 128.4L123.707 202.771C164.805 211.108 204.884 184.569 213.227 143.493L138.811 128.4Z" fill="#00A596" style="fill:#00A596;fill:color(display-p3 0.0000 0.6471 0.5882);fill-opacity:1;"/>
<path d="M34.2465 107.181C22.5251 164.901 59.8292 221.191 117.586 232.906L138.811 128.4L34.2465 107.181Z" fill="#A6B9F4" style="fill:#A6B9F4;fill:color(display-p3 0.6510 0.7255 0.9569);fill-opacity:1;"/>
<path d="M123.707 202.771L138.811 128.4L64.3979 113.298C56.0569 154.373 82.6078 194.432 123.707 202.771Z" fill="#1D65D8" style="fill:#1D65D8;fill:color(display-p3 0.1137 0.3961 0.8471);fill-opacity:1;"/>
<path d="M166.481 0L140.725 126.873L267.666 152.636C281.887 82.557 236.59 14.2245 166.481 0Z" fill="#4770B2" style="fill:#4770B2;fill:color(display-p3 0.2784 0.4392 0.6980);fill-opacity:1;"/>
<path d="M159.052 36.5825L140.725 126.873L231.051 145.201C241.18 95.3364 208.945 46.71 159.052 36.5825Z" fill="#A8D1FF" style="fill:#A8D1FF;fill:color(display-p3 0.6588 0.8196 1.0000);fill-opacity:1;"/>
<path d="M138.874 169.282C161.635 169.282 180.087 150.841 180.087 128.092C180.087 105.343 161.635 86.9014 138.874 86.9014C116.113 86.9014 97.6615 105.343 97.6615 128.092C97.6615 150.841 116.113 169.282 138.874 169.282Z" fill="white" style="fill:white;fill:white;fill-opacity:1;"/>
<path d="M34.6077 105.346L33.9872 108.402L243.122 150.814L243.742 147.758L34.6077 105.346Z" fill="white" style="fill:white;fill:white;fill-opacity:1;"/>
<path d="M158.829 23.4096L116.15 232.426L119.208 233.05L161.887 24.0334L158.829 23.4096Z" fill="white" style="fill:white;fill:white;fill-opacity:1;"/>
<path d="M120.568 133.508C120.568 130.367 122.188 128.023 124.914 127C123.257 126.123 121.672 124.585 121.672 121.697C121.672 117.298 124.73 115.333 129.186 115.333C133.641 115.333 136.701 117.309 136.701 121.697C136.701 124.585 135.117 126.123 133.459 127C136.183 128.023 137.803 130.352 137.803 133.508C137.803 138.481 134.305 140.967 129.186 140.967C124.066 140.967 120.568 138.481 120.568 133.508ZM122.999 133.508C122.999 137.166 125.541 138.774 129.186 138.774C132.83 138.774 135.372 137.166 135.372 133.508C135.372 129.887 133.054 128.205 129.186 128.205C125.317 128.205 122.999 129.887 122.999 133.508ZM124.103 121.697C124.103 124.585 126.092 126.012 129.186 126.012C132.279 126.012 134.268 124.585 134.268 121.697C134.268 118.882 132.354 117.529 129.186 117.529C126.017 117.529 124.103 118.882 124.103 121.697Z" fill="#929497" style="fill:#929497;fill:color(display-p3 0.5725 0.5804 0.5922);fill-opacity:1;"/>
<path d="M149.485 125.536C155.487 125.536 157.292 129.34 157.292 133.435C157.292 138.225 154.383 140.976 148.785 140.976C144.845 140.976 142.303 139.22 140.865 136.843C140.744 136.656 140.68 136.437 140.683 136.215C140.68 136.069 140.708 135.925 140.762 135.79C140.817 135.656 140.898 135.534 141.002 135.431C141.105 135.329 141.227 135.248 141.362 135.194C141.497 135.14 141.642 135.114 141.787 135.117C141.991 135.113 142.192 135.165 142.367 135.268C142.542 135.371 142.686 135.521 142.781 135.701C143.923 137.568 145.801 138.774 148.785 138.774C152.872 138.774 154.863 136.835 154.863 133.435C154.863 130.109 153.498 127.729 149.3 127.729H146.723C146.578 127.732 146.433 127.706 146.298 127.652C146.163 127.599 146.041 127.518 145.938 127.416C145.835 127.314 145.753 127.192 145.698 127.057C145.644 126.923 145.616 126.779 145.618 126.634C145.613 126.349 145.718 126.074 145.912 125.865L152.689 118.04H143.187C142.896 118.04 142.617 117.924 142.411 117.718C142.205 117.512 142.089 117.233 142.089 116.942C142.089 116.651 142.205 116.372 142.411 116.166C142.617 115.96 142.896 115.844 143.187 115.844H155.185C155.331 115.841 155.475 115.868 155.61 115.922C155.745 115.976 155.868 116.056 155.971 116.159C156.074 116.261 156.155 116.383 156.21 116.518C156.265 116.652 156.292 116.797 156.29 116.942C156.292 117.226 156.187 117.5 155.996 117.711L149.108 125.536H149.485Z" fill="#929497" style="fill:#929497;fill:color(display-p3 0.5725 0.5804 0.5922);fill-opacity:1;"/>
<path d="M116.858 236.457L122.668 257.491L109.305 257.363L109.014 240.811L116.858 236.457Z" fill="white" style="fill:white;fill:white;fill-opacity:1;"/>
<path d="M122.668 257.715L109.305 257.587C109.247 257.586 109.191 257.562 109.15 257.521C109.108 257.479 109.084 257.424 109.083 257.365L108.792 240.818C108.789 240.775 108.798 240.733 108.819 240.696C108.839 240.659 108.87 240.628 108.907 240.608L116.752 236.253C116.782 236.239 116.815 236.231 116.849 236.231C116.883 236.231 116.916 236.239 116.946 236.253C116.978 236.267 117.006 236.287 117.028 236.312C117.051 236.337 117.067 236.367 117.076 236.4L122.884 257.428C122.894 257.461 122.896 257.496 122.889 257.53C122.883 257.564 122.868 257.596 122.846 257.623C122.825 257.651 122.798 257.673 122.768 257.689C122.737 257.705 122.703 257.714 122.668 257.715ZM109.525 257.139L122.374 257.265L116.716 236.79L109.238 240.941L109.525 257.139Z" fill="#0A1D2C" style="fill:#0A1D2C;fill:color(display-p3 0.0392 0.1137 0.1725);fill-opacity:1;"/>
<path d="M105.818 203.177L121.624 240.172C121.624 240.172 115.299 246.318 109.259 246.32" fill="white" style="fill:white;fill:white;fill-opacity:1;"/>
<path d="M109.251 246.548C109.191 246.548 109.134 246.525 109.092 246.483C109.05 246.441 109.027 246.384 109.027 246.324C109.027 246.265 109.05 246.208 109.092 246.166C109.134 246.124 109.191 246.1 109.251 246.1C114.7 246.1 120.488 240.929 121.358 240.12L105.613 203.269C105.6 203.242 105.593 203.213 105.591 203.183C105.59 203.153 105.595 203.123 105.605 203.095C105.616 203.067 105.632 203.041 105.653 203.019C105.673 202.997 105.698 202.98 105.726 202.968C105.781 202.945 105.842 202.944 105.898 202.966C105.953 202.988 105.997 203.031 106.021 203.085L121.827 240.08C121.845 240.122 121.85 240.167 121.841 240.212C121.832 240.256 121.81 240.296 121.777 240.327C121.521 240.591 115.32 246.546 109.251 246.548Z" fill="#0A1D2C" style="fill:#0A1D2C;fill:color(display-p3 0.0392 0.1137 0.1725);fill-opacity:1;"/>
<path d="M105.818 201.902C105.818 201.902 99.4261 186.222 76.7669 179.253C76.4756 179.253 54.3949 172.864 30.2814 180.705C29.9922 180.124 8.45425 187.282 5.76123 198.949C5.93308 198.603 -2.94447 214.679 3.06611 257.363C2.97389 257.652 109.305 257.363 109.305 257.363C109.305 257.363 109.595 212.936 105.818 201.902Z" fill="white" style="fill:white;fill:white;fill-opacity:1;"/>
<path d="M34.3387 257.719C3.04097 257.719 2.94457 257.579 2.88589 257.497C2.86294 257.467 2.84847 257.432 2.84397 257.394C-2.77889 217.454 4.47236 200.999 5.53699 198.955C5.53296 198.933 5.53296 198.911 5.53699 198.89C8.0896 187.832 27.4815 180.75 29.988 180.457C30.0893 180.441 30.1926 180.441 30.294 180.457C50.6226 173.876 69.348 177.211 76.4652 178.949C76.6412 178.993 76.7481 179.018 76.7837 179.025C88.5785 182.648 95.8864 188.641 99.9479 193.033C104.349 197.799 106.002 201.772 106.026 201.812C109.771 212.756 109.528 256.9 109.525 257.346C109.525 257.406 109.501 257.462 109.459 257.504C109.417 257.546 109.36 257.57 109.301 257.57C73.7659 257.683 50.0966 257.719 34.3387 257.719ZM3.26312 257.154C7.71027 257.399 103.754 257.154 109.081 257.13C109.096 253.716 109.19 212.455 105.608 201.973C105.456 201.609 98.8372 186.274 76.7187 179.464C76.6726 179.464 76.5867 179.437 76.3667 179.383C70.8339 178.032 51.1696 174.146 30.3526 180.91C30.3214 180.92 30.2884 180.923 30.2558 180.919C30.2233 180.915 30.192 180.904 30.164 180.887C28.9066 180.887 8.59048 187.757 5.98967 198.982C5.98561 199.002 5.97928 199.022 5.97081 199.041L5.95614 199.064C5.66274 199.617 -2.51274 215.923 3.26312 257.162V257.154ZM5.56843 198.842L5.59777 198.856L5.56843 198.842Z" fill="#0A1D2C" style="fill:#0A1D2C;fill:color(display-p3 0.0392 0.1137 0.1725);fill-opacity:1;"/>
<path d="M48.5122 158.518L46.6512 181.096C46.6512 181.096 50.1637 190.765 70.5699 189.055C70.836 189.585 71.8671 166.71 71.8671 166.71L48.5122 158.518Z" fill="white" style="fill:white;fill:white;fill-opacity:1;"/>
<path d="M66.0032 189.485C58.2071 189.485 53.5126 187.623 50.8427 185.905C47.391 183.685 46.4856 181.274 46.4416 181.171C46.4312 181.141 46.4269 181.109 46.429 181.077L48.3026 158.501C48.3042 158.467 48.3142 158.434 48.3317 158.404C48.3493 158.374 48.3738 158.35 48.4032 158.332C48.4321 158.313 48.4649 158.301 48.499 158.297C48.5332 158.293 48.5678 158.297 48.6002 158.309L71.9551 166.507C72.0003 166.523 72.0391 166.554 72.0658 166.594C72.0926 166.634 72.1059 166.681 72.1039 166.729C71.0896 189.196 70.8612 189.244 70.6369 189.292C70.6072 189.299 70.5765 189.299 70.5468 189.292C68.9247 189.424 67.4137 189.485 66.0032 189.485ZM46.8859 181.06C47.1772 181.745 51.2534 190.409 70.4169 188.852C70.6516 187.386 71.2677 175.158 71.6429 166.876L48.7218 158.826L46.8859 181.06Z" fill="#0A1D2C" style="fill:#0A1D2C;fill:color(display-p3 0.0392 0.1137 0.1725);fill-opacity:1;"/>
<path d="M79.768 163.225C77.2532 169.967 72.4581 176.056 69.3941 176.712C68.0319 176.993 66.0535 176.339 64.0563 175.367C62.3768 174.528 60.7954 173.506 59.3409 172.319C59.3409 172.319 50.3648 165.055 48.3697 157.416C48.3697 157.416 51.8549 132.327 62.124 138.437L77.404 137.247L83.9616 145.157L84.6427 144.926C84.6427 144.926 83.7332 152.791 79.768 163.225Z" fill="white" style="fill:white;fill:white;fill-opacity:1;"/>
<path d="M68.7088 176.995C67.5101 176.995 65.9194 176.515 63.9578 175.564C62.2635 174.719 60.6681 173.689 59.2005 172.493C59.1083 172.42 50.1448 165.087 48.1517 157.473C48.1455 157.444 48.1455 157.414 48.1517 157.385C48.2439 156.708 50.5241 140.802 56.8721 137.754C58.5215 136.962 60.3091 137.126 62.1806 138.209L77.3894 137.025C77.4252 137.022 77.4613 137.028 77.4945 137.042C77.5277 137.056 77.557 137.077 77.5801 137.105L84.0392 144.888L84.5757 144.708C84.6113 144.696 84.6493 144.694 84.6862 144.7C84.7231 144.707 84.7578 144.723 84.787 144.747C84.8161 144.77 84.839 144.801 84.8533 144.835C84.8677 144.87 84.8731 144.908 84.8691 144.945C84.8691 145.025 83.9113 152.963 79.9818 163.302C77.4795 170.005 72.6467 176.245 69.4444 176.93C69.2022 176.977 68.9556 176.999 68.7088 176.995ZM48.5897 157.395C50.5681 164.852 59.3849 172.058 59.475 172.139C60.9167 173.315 62.484 174.328 64.1485 175.16C66.4538 176.278 68.2017 176.722 69.3418 176.486C72.3659 175.84 77.1379 169.603 79.5501 163.141C82.9913 154.086 84.1356 146.889 84.3703 145.242L84.0308 145.358C83.988 145.372 83.9419 145.373 83.8984 145.361C83.855 145.349 83.8164 145.323 83.7877 145.288L77.3035 137.476L62.1345 138.663C62.0883 138.667 62.0422 138.656 62.0025 138.632C60.2462 137.584 58.5822 137.427 57.0544 138.16C51.0858 141.026 48.7344 156.467 48.596 157.402L48.5897 157.395Z" fill="#0A1D2C" style="fill:#0A1D2C;fill:color(display-p3 0.0392 0.1137 0.1725);fill-opacity:1;"/>
<path d="M74.6901 160.447H74.6712L70.2094 160.11C70.1528 160.102 70.1013 160.073 70.0654 160.029C70.0295 159.984 70.0119 159.928 70.0162 159.871C70.0205 159.814 70.0463 159.761 70.0884 159.723C70.1306 159.684 70.1858 159.663 70.2429 159.664L74.7068 160.001C74.7624 160.008 74.8133 160.036 74.8495 160.078C74.8858 160.121 74.9047 160.176 74.9026 160.232C74.9005 160.288 74.8775 160.341 74.8382 160.381C74.7988 160.421 74.746 160.444 74.6901 160.447Z" fill="#0A1D2C" style="fill:#0A1D2C;fill:color(display-p3 0.0392 0.1137 0.1725);fill-opacity:1;"/>
<path d="M99.139 134.832C98.7764 133.272 98.0052 131.728 96.6744 130.829C95.6013 130.105 94.281 129.87 93.0005 129.665C89.5216 129.107 85.3679 128.123 84.2215 124.809C84.2215 123.057 84.2264 121.303 84.2362 119.548C84.2362 117.69 84.2362 115.75 83.3979 114.102C82.5596 112.453 80.621 111.169 78.8501 111.745C77.9238 112.043 77.2029 112.767 76.3352 113.226C75.4676 113.685 74.2395 113.785 73.6694 113.002C73.4695 112.669 73.3277 112.304 73.2503 111.923C72.1207 108.101 67.2397 106.385 63.4255 107.552C59.6112 108.719 56.7967 111.951 54.7072 115.352C54.2084 116.163 53.7013 117.028 52.8734 117.491C52.1588 117.891 51.3079 117.935 50.5011 118.077C47.0305 118.687 44.13 121.284 42.5079 124.409C40.8858 127.534 40.4017 131.123 40.3933 134.646C40.3979 143.833 43.4499 152.759 49.0718 160.028L47.3113 150.812C47.02 149.277 46.953 147.266 48.3739 146.623C49.8619 145.94 51.375 147.46 52.3076 148.809C51.9324 145.458 51.7753 141.499 54.3572 139.317C56.2434 137.727 58.9993 137.679 61.3989 138.236C63.7985 138.793 66.0724 139.863 68.5055 140.253C71.9446 140.789 75.4562 139.942 78.2717 137.896C81.4102 141.501 83.3899 145.966 83.9532 150.711C84.0593 151.411 83.9872 152.127 83.7437 152.791C83.7751 152.922 83.7962 153.055 83.8065 153.189C86.9019 151.539 89.1737 148.384 89.6306 144.899C92.2607 145.998 95.4987 145.022 97.3848 142.871C99.271 140.72 99.7844 137.616 99.139 134.832Z" fill="#0A1D2C" style="fill:#0A1D2C;fill:color(display-p3 0.0392 0.1137 0.1725);fill-opacity:1;"/>
<path d="M99.7572 134.662C98.6087 130.683 96.2238 129.635 92.3572 128.911C90.3159 128.532 88.0923 128.073 86.4493 126.728C84.0538 124.772 84.9823 121.203 84.8712 118.425C84.7538 115.333 83.7353 111.169 79.9085 110.983C79.4923 110.964 79.0757 111.01 78.6741 111.121C76.9158 111.622 77.4166 112.223 75.3565 111.944C73.3886 111.68 73.9796 111.486 73.1686 110.176C72.793 109.592 72.3317 109.067 71.8001 108.62C65.9068 103.509 58.5529 108.553 54.9797 113.76C54.112 115.017 53.4812 116.58 51.9534 117.164C51.1633 117.466 50.2202 117.432 49.4029 117.667C47.6137 118.208 45.9826 119.176 44.6498 120.486C41.7786 123.238 40.4352 127.072 39.97 130.945C38.7125 141.34 42.2753 152.1 48.5185 160.345C48.9523 160.916 49.8325 160.596 49.69 159.852C49.2848 157.744 48.8811 155.634 48.4787 153.524C48.2963 152.569 48.0595 151.608 47.9296 150.646C47.5754 148.175 50.1469 147.01 51.7564 149.134C52.0875 149.572 53.0139 149.52 52.9489 148.81C52.4396 143.898 53.0935 138.127 59.5505 138.586C63.5324 138.866 66.9924 141.204 71.077 141.03C72.6835 140.967 74.2669 140.626 75.7568 140.023C76.176 139.851 77.4334 139.009 77.7457 139.023C78.7935 139.074 79.6591 140.735 80.1201 141.497C81.3201 143.481 82.2178 145.632 82.7838 147.879C83.2491 149.727 82.8865 151.52 83.1799 153.355C83.2449 153.774 83.7961 153.929 84.1209 153.736C87.4217 151.784 89.5572 148.856 90.2384 145.062L89.4504 145.508C96.4145 147.831 100.893 140.881 99.7572 134.656C99.6084 133.848 98.374 134.191 98.5228 134.998C99.4869 140.291 95.7984 146.277 89.792 144.275C89.628 144.23 89.4532 144.253 89.3055 144.336C89.1579 144.42 89.0495 144.559 89.004 144.723C88.3752 148.192 86.51 150.835 83.4733 152.632L84.4143 153.013C84.2466 151.966 84.5987 150.672 84.429 149.528C84.166 147.855 83.7176 146.217 83.0919 144.643C82.0408 142.022 80.5676 139.59 78.7307 137.444C78.6303 137.344 78.4996 137.28 78.359 137.262C78.2184 137.244 78.0757 137.272 77.9531 137.344C74.0928 139.939 69.9893 140.211 65.6197 138.854C62.8303 137.989 60.0409 136.872 57.067 137.434C51.5154 138.481 51.1989 144.208 51.6747 148.81L52.8672 148.487C51.5552 146.755 48.793 144.333 47.0452 147.033C46.2803 148.213 46.5129 149.675 46.7015 150.988C47.1437 154.067 47.8772 157.136 48.4619 160.192L49.6313 159.699C43.2016 151.208 39.0919 139.172 41.6906 128.513C42.3801 125.687 43.692 123 45.9093 121.056C47.3239 119.818 48.8622 119.116 50.6813 118.685C51.4903 118.494 52.2908 118.498 53.0537 118.1C54.3824 117.407 55.0111 116.006 55.8075 114.822C57.5763 112.179 59.7579 109.718 62.7695 108.501C65.5275 107.389 68.9499 107.629 71.1965 109.774C72.4099 110.931 72.3722 112.987 73.768 113.878C74.6063 114.418 75.6415 114.2 76.5155 113.836C77.163 113.566 77.6618 112.96 78.3031 112.705C82.1928 111.15 83.4461 115.491 83.597 118.425C83.7751 121.875 82.6224 125.409 85.7095 127.815C89.9177 131.093 96.7498 128.837 98.5291 135.004C98.7492 135.794 99.9856 135.456 99.7572 134.662Z" fill="#0A1D2C" style="fill:#0A1D2C;fill:color(display-p3 0.0392 0.1137 0.1725);fill-opacity:1;"/>
<path d="M51.8905 149.201C51.8905 149.201 51.157 144.704 48.3739 146.623C48.3739 146.623 45.1444 149.587 48.3739 155.452C48.3739 155.452 48.6505 159.597 49.908 161.233" fill="white" style="fill:white;fill:white;fill-opacity:1;"/>
<path d="M49.908 161.457C49.8737 161.458 49.8397 161.45 49.809 161.435C49.7783 161.42 49.7518 161.397 49.7319 161.369C48.5059 159.777 48.1895 156.017 48.1538 155.517C46.4772 152.444 46.5694 150.156 46.9467 148.778C47.1615 147.907 47.6008 147.107 48.2209 146.457C48.9963 145.923 49.6879 145.793 50.2957 146.053C51.6851 146.644 52.0938 149.063 52.1106 149.166C52.1165 149.195 52.1164 149.226 52.1103 149.255C52.1042 149.284 52.0923 149.312 52.0752 149.337C52.0581 149.362 52.0362 149.383 52.0108 149.399C51.9854 149.415 51.9571 149.426 51.9274 149.431C51.8977 149.436 51.8674 149.435 51.8381 149.428C51.8089 149.421 51.7814 149.408 51.7572 149.39C51.7331 149.372 51.7127 149.349 51.6975 149.323C51.6822 149.298 51.6723 149.269 51.6684 149.239C51.6684 149.216 51.2828 146.96 50.1196 146.464C49.6586 146.267 49.1137 146.384 48.4996 146.807C48.399 146.904 45.4713 149.717 48.5688 155.343C48.5852 155.372 48.5945 155.404 48.596 155.437C48.596 155.477 48.8852 159.532 50.0861 161.092C50.104 161.116 50.1171 161.143 50.1247 161.171C50.1322 161.199 50.1341 161.229 50.1302 161.258C50.1264 161.287 50.1168 161.316 50.102 161.341C50.0872 161.366 50.0676 161.389 50.0442 161.407C50.0062 161.439 49.9579 161.457 49.908 161.457Z" fill="#0A1D2C" style="fill:#0A1D2C;fill:color(display-p3 0.0392 0.1137 0.1725);fill-opacity:1;"/>
<path d="M20.5446 240.799C20.5153 240.8 20.4862 240.794 20.4591 240.783C20.432 240.772 20.4076 240.755 20.3874 240.734C20.3664 240.713 20.3498 240.689 20.3384 240.661C20.327 240.634 20.3212 240.605 20.3212 240.576C20.3212 240.546 20.327 240.517 20.3384 240.49C20.3498 240.463 20.3664 240.438 20.3874 240.418L46.5003 214.124C46.5209 214.103 46.5455 214.087 46.5725 214.075C46.5995 214.064 46.6285 214.058 46.6578 214.058C46.6871 214.058 46.7161 214.064 46.7432 214.075C46.7703 214.086 46.7949 214.102 46.8157 214.123C46.8365 214.144 46.853 214.168 46.8643 214.195C46.8756 214.222 46.8814 214.251 46.8815 214.28C46.8816 214.31 46.876 214.339 46.8648 214.366C46.8537 214.393 46.8374 214.417 46.8167 214.438L20.7038 240.734C20.6829 240.755 20.658 240.771 20.6307 240.782C20.6034 240.793 20.5741 240.799 20.5446 240.799Z" fill="#0A1D2C" style="fill:#0A1D2C;fill:color(display-p3 0.0392 0.1137 0.1725);fill-opacity:1;"/>
<path d="M71.6429 167.114C69.9878 167.101 68.3415 166.873 66.7451 166.436C66.6883 166.419 66.6403 166.381 66.6116 166.329C66.5829 166.277 66.5759 166.216 66.5921 166.159C66.6096 166.103 66.6485 166.055 66.7005 166.026C66.7525 165.998 66.8136 165.991 66.8709 166.006C66.9212 166.023 71.93 167.46 75.4445 166.006C75.4716 165.995 75.5007 165.989 75.53 165.989C75.5594 165.989 75.5885 165.995 75.6155 166.006C75.6426 166.018 75.6672 166.034 75.6879 166.055C75.7085 166.076 75.7248 166.101 75.7358 166.128C75.7472 166.155 75.753 166.184 75.753 166.214C75.7531 166.243 75.7473 166.272 75.736 166.3C75.7247 166.327 75.7081 166.352 75.6872 166.372C75.6664 166.393 75.6416 166.41 75.6143 166.421C74.3473 166.905 72.9989 167.14 71.6429 167.114Z" fill="#0A1D2C" style="fill:#0A1D2C;fill:color(display-p3 0.0392 0.1137 0.1725);fill-opacity:1;"/>
<path d="M146.58 241.147H99.3527C97.7224 241.147 96.1581 240.502 95.0019 239.354C93.8457 238.205 93.1917 236.645 93.1829 235.016L101.821 162.699C101.832 161.071 102.487 159.513 103.643 158.365C104.799 157.218 106.362 156.574 107.991 156.574H155.219C156.848 156.573 158.412 157.217 159.569 158.364C160.725 159.512 161.38 161.07 161.391 162.699L152.75 235.016C152.741 236.645 152.087 238.205 150.931 239.354C149.775 240.502 148.211 241.147 146.58 241.147Z" fill="#C7DADD" style="fill:#C7DADD;fill:color(display-p3 0.7804 0.8549 0.8667);fill-opacity:1;"/>
<path d="M150.95 229.859L95.7899 229.754L104.129 164.465H158.991L150.95 229.859Z" fill="white" style="fill:white;fill:white;fill-opacity:1;"/>
<path d="M135.747 171.691H106.474V172.11H135.747V171.691Z" fill="black" style="fill:black;fill:black;fill-opacity:1;"/>
<path d="M135.957 175.975H105.845V176.394H135.957V175.975Z" fill="black" style="fill:black;fill:black;fill-opacity:1;"/>
<path d="M139.1 180.646H105.426V181.065H139.1V180.646Z" fill="black" style="fill:black;fill:black;fill-opacity:1;"/>
<path d="M150.977 189.248H104.519V189.667H150.977V189.248Z" fill="black" style="fill:black;fill:black;fill-opacity:1;"/>
<path d="M150.558 193.492H103.89V193.911H150.558V193.492Z" fill="black" style="fill:black;fill:black;fill-opacity:1;"/>
<path d="M150.126 197.951H103.121V198.37H150.126V197.951Z" fill="black" style="fill:black;fill:black;fill-opacity:1;"/>
<path d="M149.078 202.486H102.142V202.905H149.078V202.486Z" fill="black" style="fill:black;fill:black;fill-opacity:1;"/>
<path d="M148.881 211.847H99.9416V212.266H148.881V211.847Z" fill="black" style="fill:black;fill:black;fill-opacity:1;"/>
<path d="M147.984 216.367H99.2542V216.786H147.984V216.367Z" fill="black" style="fill:black;fill:black;fill-opacity:1;"/>
<path d="M147.228 220.984H98.4977V221.403H147.228V220.984Z" fill="black" style="fill:black;fill:black;fill-opacity:1;"/>
<path d="M146.79 179.299L145.951 184.033C141.729 183.463 138.912 179.647 139.547 175.357L144.246 175.864C144.143 176.654 144.35 177.453 144.825 178.094C145.299 178.734 146.004 179.166 146.79 179.299Z" fill="#A8D1FF" style="fill:#A8D1FF;fill:color(display-p3 0.6588 0.8196 1.0000);fill-opacity:1;"/>
<path d="M146.79 179.299L146.383 181.571C143.508 181.153 141.592 178.553 141.993 175.623L144.248 175.866C144.145 176.655 144.353 177.454 144.827 178.094C145.301 178.734 146.004 179.166 146.79 179.299Z" fill="#4770B2" style="fill:#4770B2;fill:color(display-p3 0.2784 0.4392 0.6980);fill-opacity:1;"/>
<path d="M147.221 179.345C148.049 179.364 148.858 179.099 149.515 178.596C150.171 178.092 150.636 177.38 150.832 176.576L155.529 177.083C154.666 181.35 150.642 184.427 146.381 184.079L147.221 179.345Z" fill="#35D888" style="fill:#35D888;fill:color(display-p3 0.2078 0.8471 0.5333);fill-opacity:1;"/>
<path d="M148.374 172.716L149.212 167.982C153.442 168.551 156.256 172.368 155.613 176.658L150.908 176.157C151.013 175.367 150.808 174.567 150.335 173.926C149.863 173.284 149.16 172.85 148.374 172.716Z" fill="#1D65D8" style="fill:#1D65D8;fill:color(display-p3 0.1137 0.3961 0.8471);fill-opacity:1;"/>
<path d="M148.374 172.716L148.772 170.445C151.652 170.864 153.567 173.463 153.161 176.394L150.908 176.157C151.013 175.367 150.808 174.567 150.335 173.926C149.863 173.284 149.16 172.85 148.374 172.716Z" fill="#A6B9F4" style="fill:#A6B9F4;fill:color(display-p3 0.6510 0.7255 0.9569);fill-opacity:1;"/>
<path d="M144.822 174.31C144.593 174.655 144.427 175.038 144.329 175.441L139.633 174.934C139.862 173.804 140.314 172.732 140.964 171.779L144.822 174.31Z" fill="#ED8658" style="fill:#ED8658;fill:color(display-p3 0.9294 0.5255 0.3451);fill-opacity:1;"/>
<path d="M147.221 179.345C148.049 179.364 148.858 179.099 149.515 178.596C150.171 178.092 150.636 177.38 150.832 176.576L151.637 176.662C151.41 177.689 150.827 178.603 149.991 179.242C149.155 179.881 148.12 180.205 147.069 180.156L147.221 179.345Z" fill="#00A596" style="fill:#00A596;fill:color(display-p3 0.0000 0.6471 0.5882);fill-opacity:1;"/>
<path d="M144.822 174.309C144.593 174.655 144.427 175.038 144.329 175.441L142.896 175.288C143.032 174.662 143.285 174.067 143.64 173.534L144.822 174.309Z" fill="#FAAF70" style="fill:#FAAF70;fill:color(display-p3 0.9804 0.6863 0.4392);fill-opacity:1;"/>
<path d="M145.836 173.285C145.49 173.519 145.186 173.81 144.937 174.146L141.077 171.616C141.688 170.763 142.443 170.024 143.309 169.431L145.836 173.285Z" fill="#ED8658" style="fill:#ED8658;fill:color(display-p3 0.9294 0.5255 0.3451);fill-opacity:1;"/>
<path d="M143.472 169.32C145.04 168.283 146.908 167.797 148.783 167.938L147.945 172.671C147.259 172.645 146.581 172.821 145.995 173.178L143.472 169.32Z" fill="#ED8658" style="fill:#ED8658;fill:color(display-p3 0.9294 0.5255 0.3451);fill-opacity:1;"/>
<path d="M145.836 173.285C145.49 173.519 145.186 173.81 144.937 174.146L143.753 173.371C144.112 172.876 144.555 172.448 145.061 172.104L145.836 173.285Z" fill="#FAAF70" style="fill:#FAAF70;fill:color(display-p3 0.9804 0.6863 0.4392);fill-opacity:1;"/>
<path d="M145.228 171.995C146.115 171.431 147.158 171.162 148.207 171.226L147.953 172.672C147.267 172.645 146.589 172.821 146.004 173.178L145.228 171.995Z" fill="#FAAF70" style="fill:#FAAF70;fill:color(display-p3 0.9804 0.6863 0.4392);fill-opacity:1;"/>
<path d="M36.8851 208.204L68.2625 238.31L111.904 198.988C111.904 198.988 122.647 183.329 131.897 180.855C131.506 180.893 148.791 175.667 148.791 175.667C148.791 175.667 148.123 181.586 136.47 183.18C136.89 183.534 140.871 191.936 133.926 201.847C133.195 202.463 127.111 204.97 120.865 205.8C120.815 205.23 97.0516 249.808 73.8707 259.554C74.3045 259.908 49.7026 263.083 15.7558 226.847C16.1855 227.19 36.8851 208.204 36.8851 208.204Z" fill="white" style="fill:white;fill:white;fill-opacity:1;"/>
<path d="M71.7623 260C68.9268 260 63.4967 259.405 56.1449 256.575C39.5508 250.189 24.9331 236.961 15.5924 226.989C15.5531 226.948 15.5313 226.893 15.5313 226.836C15.5313 226.779 15.5531 226.724 15.5924 226.683C15.6109 226.657 15.6365 226.637 15.6662 226.624C15.6959 226.612 15.7284 226.609 15.76 226.614C16.8079 226.149 28.829 215.286 36.7342 208.035C36.7757 207.996 36.8304 207.975 36.8872 207.975C36.9439 207.975 36.9986 207.996 37.0401 208.035L68.2666 237.988L111.755 198.812C112.16 198.209 122.615 183.103 131.839 180.629V180.667L131.866 180.654V180.623C131.888 180.619 131.911 180.619 131.933 180.623C132.541 180.359 134.448 179.785 140.262 178.007C144.489 176.718 148.718 175.441 148.718 175.441C148.754 175.43 148.791 175.428 148.828 175.435C148.865 175.442 148.899 175.459 148.927 175.483C148.956 175.506 148.978 175.536 148.992 175.571C149.006 175.605 149.011 175.643 149.007 175.679C149.007 175.744 148.812 177.255 147.154 178.968C145.687 180.495 142.695 182.479 136.845 183.339C137.81 185.095 140.408 192.96 134.104 201.963C134.093 201.979 134.079 201.993 134.064 202.007C133.304 202.648 127.287 205.149 120.964 205.999C120.824 206.208 120.407 206.91 119.895 207.775C98.7282 243.593 83.2784 255.805 74.0341 259.722C73.9747 259.774 73.9024 259.81 73.8245 259.826C73.1459 259.962 72.4541 260.02 71.7623 260ZM16.1184 226.905C25.5702 236.959 40.2487 250.155 56.8512 256.374C66.808 260.105 72.9695 259.64 73.7072 259.414C73.7297 259.388 73.7576 259.368 73.7889 259.355C82.9641 255.497 98.3426 243.379 119.516 207.557C120.666 205.611 120.721 205.538 120.889 205.57C127.09 204.732 133.008 202.277 133.761 201.69C140.371 192.242 136.904 183.938 136.324 183.348C136.293 183.317 136.272 183.279 136.261 183.238C136.251 183.196 136.252 183.152 136.265 183.111C136.277 183.072 136.299 183.036 136.33 183.009C136.361 182.982 136.398 182.963 136.439 182.956C142.368 182.145 145.35 180.193 146.811 178.698C147.583 177.946 148.158 177.017 148.487 175.992C143.78 177.416 132.78 180.755 132.023 181.037C132.002 181.052 131.979 181.063 131.954 181.069C122.89 183.494 112.198 198.957 112.091 199.114L68.4217 238.472C68.3802 238.51 68.3255 238.532 68.2687 238.532C68.2119 238.532 68.1573 238.51 68.1158 238.472L36.8892 208.519C35.9881 209.344 31.3083 213.63 26.639 217.829C19.2871 224.423 16.942 226.382 16.1184 226.897V226.905Z" fill="#0A1D2C" style="fill:#0A1D2C;fill:color(display-p3 0.0392 0.1137 0.1725);fill-opacity:1;"/>
<path d="M51.5469 219.478L26.113 245.428C-11.0361 214.966 7.09625 196.204 7.93873 195.517C7.93873 195.517 13.7712 188.892 24.3651 193.406C26.266 194.158 34.6804 197.882 51.5469 219.478Z" fill="white" style="fill:white;fill:white;fill-opacity:1;"/>
<path d="M26.113 245.652C26.0616 245.653 26.0116 245.635 25.9725 245.602C10.4641 232.881 2.57992 220.676 2.55477 209.35C2.53591 200.266 7.74382 195.387 7.79411 195.344C7.84441 195.3 9.29466 193.668 12.0946 192.56C14.6744 191.548 18.9078 190.84 24.4594 193.199C33.4019 196.736 46.5108 212.66 51.7292 219.341C51.7626 219.384 51.7793 219.437 51.7762 219.491C51.7732 219.545 51.7505 219.596 51.7124 219.635L26.2743 245.585C26.2316 245.628 26.1735 245.652 26.113 245.652ZM17.227 192.063C15.5273 192.053 13.8409 192.363 12.2559 192.977C9.55663 194.036 8.11895 195.649 8.10428 195.664C8.02674 195.731 2.9802 200.463 2.99907 209.348C3.0305 223.223 15.5358 236.44 26.0941 245.124L51.243 219.461C35.7282 199.617 27.2216 194.776 24.2834 193.613C21.5987 192.47 19.2327 192.063 17.227 192.063Z" fill="#0A1D2C" style="fill:#0A1D2C;fill:color(display-p3 0.0392 0.1137 0.1725);fill-opacity:1;"/>
<path d="M119.03 235.361C119.03 234.764 119.207 234.181 119.538 233.685C119.87 233.189 120.341 232.803 120.893 232.574C121.444 232.346 122.051 232.286 122.636 232.403C123.222 232.519 123.759 232.806 124.181 233.228C124.603 233.65 124.891 234.187 125.007 234.773C125.124 235.358 125.064 235.964 124.836 236.515C124.607 237.066 124.22 237.537 123.724 237.869C123.228 238.2 122.644 238.377 122.047 238.377C121.248 238.373 120.483 238.054 119.918 237.49C119.353 236.925 119.033 236.16 119.03 235.361ZM119.218 235.361C119.218 235.92 119.384 236.467 119.695 236.932C120.006 237.397 120.448 237.759 120.965 237.973C121.482 238.187 122.051 238.243 122.599 238.134C123.148 238.025 123.652 237.756 124.048 237.36C124.444 236.965 124.713 236.461 124.822 235.913C124.932 235.364 124.875 234.796 124.661 234.279C124.447 233.762 124.085 233.321 123.619 233.01C123.154 232.699 122.607 232.533 122.047 232.533C121.298 232.537 120.581 232.836 120.051 233.366C119.521 233.895 119.222 234.612 119.218 235.361Z" fill="#0A1D2C" style="fill:#0A1D2C;fill:color(display-p3 0.0392 0.1137 0.1725);fill-opacity:1;"/>
</g>
<defs>
<clipPath id="clip0_1_108">
<rect width="269.541" height="260" fill="white" style="fill:white;fill:white;fill-opacity:1;" transform="translate(0.72937)"/>
</clipPath>
</defs>
</svg>
