<svg width="48" height="49" viewBox="0 0 48 49" fill="none" xmlns="http://www.w3.org/2000/svg">
<path d="M0 35.6289V12.5361C0 5.60825 5.60825 0 12.5361 0H35.4639C42.3918 0 48 5.60825 48 12.5361V35.464C48 42.3918 42.3918 48.0001 35.4639 48.0001H12.5361C5.60825 48.165 0 42.5567 0 35.6289Z" fill="#00ACEE" style="fill:#00ACEE;fill:color(display-p3 0.0000 0.6745 0.9333);fill-opacity:1;"/>
<path d="M37.4441 15.8352C36.6194 16.1651 35.6297 16.495 34.8049 16.66C35.2998 16.66 35.7946 15.8352 36.1245 15.5053C36.4544 15.0105 36.7843 14.5156 36.9493 13.8559V13.6909H36.7843C35.7946 14.1857 34.8049 14.6806 33.6503 14.8455C33.4854 14.8455 33.4854 14.8455 33.4854 14.8455C33.3204 14.6806 33.3204 14.6806 33.1555 14.5156C32.6606 14.1857 32.1658 13.8559 31.6709 13.526C31.0111 13.1961 30.1864 13.0311 29.3617 13.1961C28.5369 13.1961 27.8771 13.526 27.2173 13.8559C26.5575 14.1857 25.8977 14.6806 25.4029 15.3404C24.908 16.0002 24.5781 16.66 24.4132 17.4847C24.2482 18.3095 24.2482 18.9693 24.4132 19.794C24.4132 19.9589 24.4132 19.9589 24.2483 19.9589C19.9596 19.2992 16.3307 17.8146 13.3616 14.5156C13.1967 14.3507 13.1967 14.3507 13.0317 14.5156C11.7122 16.495 12.372 19.4641 14.0214 20.9486C14.1864 21.1136 14.5163 21.2785 14.6812 21.6084C14.5163 21.6084 13.5266 21.4435 12.5369 20.9486C12.372 20.9486 12.372 20.9486 12.372 21.1136C12.372 21.2785 12.372 21.4435 12.372 21.7734C12.5369 23.7528 14.0214 25.5672 15.8359 26.227C16.0008 26.3919 16.3307 26.3919 16.4957 26.3919C16.0008 26.5569 15.6709 26.5569 14.5163 26.3919C14.3513 26.3919 14.3513 26.3919 14.3513 26.5569C15.1761 29.0311 17.1555 29.6909 18.64 30.1857C18.8049 30.1857 18.9699 30.1857 19.2998 30.1857C18.805 30.8455 17.1555 31.5053 16.3307 31.6703C14.8462 32.1651 13.3617 32.3301 11.8771 32.1651C11.7122 32.1651 11.5472 32.1651 11.5472 32.1651V32.3301C11.8771 32.495 12.207 32.66 12.5369 32.8249C13.5266 33.3198 14.5163 33.8146 15.506 33.9796C20.9493 35.4641 26.8874 34.3095 31.0111 30.3507C34.1452 27.2167 35.2998 22.928 35.2998 18.4744C35.2998 18.3095 35.4647 18.1445 35.6297 18.1445C36.4544 17.4847 37.1142 16.8249 37.774 16.0002C37.6091 16.1651 37.6091 16.0002 37.4441 15.8352C37.6091 15.8352 37.6091 15.8352 37.4441 15.8352C37.6091 15.8352 37.6091 15.8352 37.4441 15.8352Z" fill="white" style="fill:white;fill:white;fill-opacity:1;"/>
</svg>
